<?xml version="1.0" encoding="UTF-8"?>
<svg width="383px" height="383px" viewBox="0 0 383 383" version="1.1" xmlns="http://www.w3.org/2000/svg" xmlns:xlink="http://www.w3.org/1999/xlink">
    <!-- Generator: Sketch 45.1 (43504) - http://www.bohemiancoding.com/sketch -->
    <title>Shoe-Repair-Concierge-Logo-edited</title>
    <desc>Created with Sketch.</desc>
    <defs></defs>
    <g id="Shoe-Repair-Concierge" stroke="none" stroke-width="1" fill="none" fill-rule="evenodd">
        <g id="HOME" transform="translate(-529.000000, -321.000000)" fill="#FFFFFF">
            <g id="Shoe-Repair-Concierge-Logo-edited" transform="translate(529.000000, 321.000000)">
                <path d="M151.14,202.11 L149.14,202.11 C113.24,201.22 90.96,199.44 82.93,196.82 L80.93,196.18 L155.04,140.36 L155.69,140.86 C169.79,151.73 169.79,153.25 169.79,153.86 C169.79,154.47 169.79,154.86 169.71,155.44 C169.71,155.69 169.71,155.99 169.66,156.27 C178.97,150.76 238.16,112.18 249.82,86.79 L250.23,85.88 L251.17,86.22 C251.39,86.3 272.82,94.5 267.56,124.43 C267.49,124.72 262.16,144.71 261.5,148.43 C260.88,151.97 260.36,189.83 260.84,195.63 L260.84,201.51 L254.42,201.51 L254.42,200.43 C254.42,183.35 254.31,153.76 254.03,151.32 C251.62,147.18 248.55,145.18 244.64,145.18 C232.32,145.18 213.16,164.59 190.98,187.07 L186.81,191.29 C181.49,196.67 168.42,202.11 151.14,202.11 Z M85.66,195.36 C92.61,197.02 109.4,198.99 149.19,199.97 C166.7,200.39 180.25,194.9 185.3,189.8 L189.47,185.58 C211.99,162.75 231.47,143.04 244.67,143.04 C249.4,143.04 253.22,145.52 256.02,150.42 C256.19,150.73 256.6,155.18 256.61,199.42 L258.71,199.42 L258.71,195.79 C258.28,190.72 258.71,152.13 259.4,148.12 C260.07,144.31 265.26,124.85 265.47,124.03 C269.84,99.15 255.23,90.53 251.34,88.7 C244.12,103.2 222.8,121.22 205.99,133.92 C188.91,146.82 169.99,159.03 168.99,159.03 C168.611642,159.041048 168.247,158.887898 167.99,158.61 C167.42,158 167.46,157.02 167.58,155.35 C167.58,154.91 167.64,154.47 167.65,154.07 C166.93,152.79 160.85,147.67 155.04,143.16 L85.66,195.36 Z" id="Shape" fill-rule="nonzero"></path>
                <rect id="Rectangle-path" fill-rule="nonzero" x="30.21" y="213.22" width="325.76" height="1"></rect>
                <rect id="Rectangle-path" fill-rule="nonzero" x="63.8" y="304.66" width="256.23" height="1"></rect>
                <path d="M48.14,249.17 L48.14,244.05 L48.42,244.05 C48.6758505,245.13326 49.0939019,246.171645 49.66,247.13 C50.3425983,248.378821 51.6373383,249.170898 53.06,249.21 C53.9530957,249.227527 54.8113845,248.863846 55.42,248.21 C56.0451629,247.56271 56.3807855,246.689369 56.35,245.79 C56.3459835,245.351825 56.2751695,244.916825 56.14,244.5 C56.0210052,244.095282 55.8351031,243.713338 55.59,243.37 C55.3093688,243.007764 54.9716141,242.693652 54.59,242.44 C53.9467343,242.02334 53.2788473,241.645984 52.59,241.31 C51.9733896,241.007484 51.3726093,240.673718 50.79,240.31 C50.4238806,240.075403 50.088023,239.796641 49.79,239.48 C49.078714,238.707802 48.6950841,237.68957 48.72,236.64 C48.7181759,235.951255 48.861275,235.26983 49.14,234.64 C49.4058697,234.01719 49.8013037,233.458128 50.3,233 C51.1527749,232.229713 52.2715047,231.820947 53.42,231.86 C53.7834383,231.857928 54.1458808,231.8982 54.5,231.98 C54.9540644,232.100345 55.3986094,232.254098 55.83,232.44 C56.24,232.61 56.52,232.71 56.67,232.76 C56.7989642,232.803671 56.9338696,232.827279 57.07,232.83 C57.36,232.83 57.55,232.62 57.65,232.2 L57.94,232.2 L58.03,237.12 L57.74,237.12 C57.52,236.34 57.3266667,235.74 57.16,235.32 C57.0047487,234.915436 56.8105001,234.526939 56.58,234.16 C56.2454167,233.589478 55.7875996,233.100912 55.24,232.73 C54.7374663,232.413643 54.1537413,232.250339 53.56,232.26 C52.7245523,232.221336 51.9174765,232.567752 51.37,233.2 C51.1400043,233.468963 50.9604579,233.777241 50.84,234.11 C50.7201667,234.430077 50.6559087,234.768277 50.65,235.11 C50.65,236.49 51.5366667,237.603333 53.31,238.45 L55.06,239.29 C56.1796016,239.759753 57.1755088,240.481872 57.97,241.4 C58.6391023,242.254875 58.9923571,243.314639 58.97,244.4 C58.9713523,245.150896 58.8146208,245.893667 58.51,246.58 C58.1137476,247.505654 57.4392196,248.285031 56.58,248.81 C55.6716655,249.344178 54.6336177,249.617531 53.58,249.6 C52.5244416,249.60126 51.4797517,249.386878 50.51,248.97 L49.59,248.58 C49.4807591,248.561725 49.3692409,248.561725 49.26,248.58 C48.8807576,248.566157 48.5415631,248.814348 48.44,249.18 L48.14,249.17 Z" id="Shape" fill-rule="nonzero"></path>
                <path d="M48.14,249.17 L48.14,244.05 L48.42,244.05 C48.6758505,245.13326 49.0939019,246.171645 49.66,247.13 C50.3425983,248.378821 51.6373383,249.170898 53.06,249.21 C53.9530957,249.227527 54.8113845,248.863846 55.42,248.21 C56.0451629,247.56271 56.3807855,246.689369 56.35,245.79 C56.3459835,245.351825 56.2751695,244.916825 56.14,244.5 C56.0210052,244.095282 55.8351031,243.713338 55.59,243.37 C55.3093688,243.007764 54.9716141,242.693652 54.59,242.44 C53.9467343,242.02334 53.2788473,241.645984 52.59,241.31 C51.9733896,241.007484 51.3726093,240.673718 50.79,240.31 C50.4238806,240.075403 50.088023,239.796641 49.79,239.48 C49.078714,238.707802 48.6950841,237.68957 48.72,236.64 C48.7181759,235.951255 48.861275,235.26983 49.14,234.64 C49.4058697,234.01719 49.8013037,233.458128 50.3,233 C51.1527749,232.229713 52.2715047,231.820947 53.42,231.86 C53.7834383,231.857928 54.1458808,231.8982 54.5,231.98 C54.9540644,232.100345 55.3986094,232.254098 55.83,232.44 C56.24,232.61 56.52,232.71 56.67,232.76 C56.7989642,232.803671 56.9338696,232.827279 57.07,232.83 C57.36,232.83 57.55,232.62 57.65,232.2 L57.94,232.2 L58.03,237.12 L57.74,237.12 C57.52,236.34 57.3266667,235.74 57.16,235.32 C57.0047487,234.915436 56.8105001,234.526939 56.58,234.16 C56.2454167,233.589478 55.7875996,233.100912 55.24,232.73 C54.7374663,232.413643 54.1537413,232.250339 53.56,232.26 C52.7245523,232.221336 51.9174765,232.567752 51.37,233.2 C51.1400043,233.468963 50.9604579,233.777241 50.84,234.11 C50.7201667,234.430077 50.6559087,234.768277 50.65,235.11 C50.65,236.49 51.5366667,237.603333 53.31,238.45 L55.06,239.29 C56.1796016,239.759753 57.1755088,240.481872 57.97,241.4 C58.6391023,242.254875 58.9923571,243.314639 58.97,244.4 C58.9713523,245.150896 58.8146208,245.893667 58.51,246.58 C58.1137476,247.505654 57.4392196,248.285031 56.58,248.81 C55.6716655,249.344178 54.6336177,249.617531 53.58,249.6 C52.5244416,249.60126 51.4797517,249.386878 50.51,248.97 L49.59,248.58 C49.4807591,248.561725 49.3692409,248.561725 49.26,248.58 C48.8807576,248.566157 48.5415631,248.814348 48.44,249.18 L48.14,249.17 Z" id="Shape" fill-rule="nonzero"></path>
                <path d="M65.98,240.17 L74.78,240.17 L74.78,236.17 C74.7983302,235.540181 74.7514135,234.910157 74.64,234.29 C74.5581779,233.914445 74.3748531,233.568549 74.11,233.29 C73.8900907,233.058303 73.61977,232.88037 73.32,232.77 C72.9449997,232.647749 72.5542876,232.580385 72.16,232.57 L72.16,232.28 L80.08,232.28 L80.08,232.57 C79.6889494,232.580076 79.3014916,232.64746 78.93,232.77 C78.2590527,233.020465 77.7641474,233.598484 77.62,234.3 C77.507648,234.920038 77.4607239,235.55016 77.48,236.18 L77.48,245.36 C77.4614236,245.986508 77.5083448,246.613242 77.62,247.23 C77.7059957,247.604014 77.8887657,247.948863 78.15,248.23 C78.3740909,248.454218 78.6434108,248.628083 78.94,248.74 C79.3105277,248.867678 79.6982608,248.938481 80.09,248.95 L80.09,249.24 L72.17,249.24 L72.17,248.95 C72.56501,248.938569 72.9560527,248.867777 73.33,248.74 C73.627011,248.628921 73.8964991,248.454948 74.12,248.23 C74.3844355,247.951151 74.567695,247.605378 74.65,247.23 C74.7616277,246.60987 74.8085461,245.979824 74.79,245.35 L74.79,240.78 L65.99,240.78 L65.99,245.36 C65.9707239,245.98984 66.017648,246.619962 66.13,247.24 C66.2735617,247.93629 66.7643986,248.510191 67.43,248.76 C67.8038704,248.888073 68.1949583,248.958873 68.59,248.97 L68.59,249.26 L60.67,249.26 L60.67,248.97 C61.0650576,248.959027 61.4561685,248.888222 61.83,248.76 C62.1250708,248.650873 62.3916985,248.476539 62.61,248.25 C62.879263,247.974648 63.0632994,247.62741 63.14,247.25 C63.2494807,246.6296 63.2963827,245.999773 63.28,245.37 L63.28,236.23 C63.2961809,235.600232 63.2492804,234.970425 63.14,234.35 C63.0632994,233.97259 62.879263,233.625352 62.61,233.35 C62.3948679,233.11732 62.1275245,232.939091 61.83,232.83 C61.458101,232.709094 61.0708824,232.641751 60.68,232.63 L60.68,232.34 L68.6,232.34 L68.6,232.63 C68.2089494,232.640076 67.8214916,232.70746 67.45,232.83 C66.7713157,233.074815 66.2679734,233.653848 66.12,234.36 C66.007648,234.980038 65.9607239,235.61016 65.98,236.24 L65.98,240.17 Z" id="Shape" fill-rule="nonzero"></path>
                <path d="M65.98,240.17 L74.78,240.17 L74.78,236.17 C74.7983302,235.540181 74.7514135,234.910157 74.64,234.29 C74.5581779,233.914445 74.3748531,233.568549 74.11,233.29 C73.8900907,233.058303 73.61977,232.88037 73.32,232.77 C72.9449997,232.647749 72.5542876,232.580385 72.16,232.57 L72.16,232.28 L80.08,232.28 L80.08,232.57 C79.6889494,232.580076 79.3014916,232.64746 78.93,232.77 C78.2590527,233.020465 77.7641474,233.598484 77.62,234.3 C77.507648,234.920038 77.4607239,235.55016 77.48,236.18 L77.48,245.36 C77.4614236,245.986508 77.5083448,246.613242 77.62,247.23 C77.7059957,247.604014 77.8887657,247.948863 78.15,248.23 C78.3740909,248.454218 78.6434108,248.628083 78.94,248.74 C79.3105277,248.867678 79.6982608,248.938481 80.09,248.95 L80.09,249.24 L72.17,249.24 L72.17,248.95 C72.56501,248.938569 72.9560527,248.867777 73.33,248.74 C73.627011,248.628921 73.8964991,248.454948 74.12,248.23 C74.3844355,247.951151 74.567695,247.605378 74.65,247.23 C74.7616277,246.60987 74.8085461,245.979824 74.79,245.35 L74.79,240.78 L65.99,240.78 L65.99,245.36 C65.9707239,245.98984 66.017648,246.619962 66.13,247.24 C66.2735617,247.93629 66.7643986,248.510191 67.43,248.76 C67.8038704,248.888073 68.1949583,248.958873 68.59,248.97 L68.59,249.26 L60.67,249.26 L60.67,248.97 C61.0650576,248.959027 61.4561685,248.888222 61.83,248.76 C62.1250708,248.650873 62.3916985,248.476539 62.61,248.25 C62.879263,247.974648 63.0632994,247.62741 63.14,247.25 C63.2494807,246.6296 63.2963827,245.999773 63.28,245.37 L63.28,236.23 C63.2961809,235.600232 63.2492804,234.970425 63.14,234.35 C63.0632994,233.97259 62.879263,233.625352 62.61,233.35 C62.3948679,233.11732 62.1275245,232.939091 61.83,232.83 C61.458101,232.709094 61.0708824,232.641751 60.68,232.63 L60.68,232.34 L68.6,232.34 L68.6,232.63 C68.2089494,232.640076 67.8214916,232.70746 67.45,232.83 C66.7713157,233.074815 66.2679734,233.653848 66.12,234.36 C66.007648,234.980038 65.9607239,235.61016 65.98,236.24 L65.98,240.17 Z" id="Shape" fill-rule="nonzero"></path>
                <path d="M81.89,240.87 C81.8777708,239.531114 82.182758,238.20836 82.78,237.01 C83.4006522,235.790267 84.2895661,234.726989 85.38,233.9 C86.2123303,233.256364 87.1402106,232.746873 88.13,232.39 C89.0914762,232.039869 90.1067562,231.860503 91.13,231.86 C92.407113,231.862541 93.6676285,232.149487 94.82,232.7 C96.012768,233.261193 97.0753898,234.064971 97.94,235.06 C99.3491295,236.599542 100.127361,238.612949 100.12,240.7 C100.122056,241.746581 99.9287459,242.784352 99.55,243.76 C99.1665885,244.751016 98.6038613,245.662905 97.89,246.45 C97.012168,247.446997 95.9313521,248.244823 94.72,248.79 C92.3078871,249.882253 89.5421129,249.882253 87.13,248.79 C85.9443731,248.262385 84.88687,247.484609 84.03,246.51 C83.3449635,245.742538 82.8091288,244.854002 82.45,243.89 C82.0825009,242.911825 81.8961298,241.874924 81.9,240.83 M84.9,241.02 C84.8414852,243.214204 85.5486151,245.360343 86.9,247.09 C87.4015445,247.753733 88.039108,248.302652 88.77,248.7 C90.2172421,249.365108 91.8827579,249.365108 93.33,248.7 C94.065213,248.304859 94.70648,247.755689 95.21,247.09 C96.5634901,245.342218 97.2701744,243.179764 97.21,240.97 C97.2170342,239.690289 97.0350719,238.416553 96.67,237.19 C96.3552218,236.103815 95.8396547,235.086248 95.15,234.19 C94.6834478,233.565425 94.0773117,233.058599 93.38,232.71 C91.9189792,232.093809 90.2710208,232.093809 88.81,232.71 C88.1110059,233.064732 87.502209,233.574343 87.03,234.2 C86.3395807,235.094317 85.8269979,236.112694 85.52,237.2 C85.1586905,238.444243 84.9801574,239.734397 84.99,241.03" id="Shape" fill-rule="nonzero"></path>
                <path d="M81.89,240.87 C81.8777708,239.531114 82.182758,238.20836 82.78,237.01 C83.4006522,235.790267 84.2895661,234.726989 85.38,233.9 C86.2123303,233.256364 87.1402106,232.746873 88.13,232.39 C89.0914762,232.039869 90.1067562,231.860503 91.13,231.86 C92.407113,231.862541 93.6676285,232.149487 94.82,232.7 C96.012768,233.261193 97.0753898,234.064971 97.94,235.06 C99.3491295,236.599542 100.127361,238.612949 100.12,240.7 C100.122056,241.746581 99.9287459,242.784352 99.55,243.76 C99.1665885,244.751016 98.6038613,245.662905 97.89,246.45 C97.012168,247.446997 95.9313521,248.244823 94.72,248.79 C92.3078871,249.882253 89.5421129,249.882253 87.13,248.79 C85.9443731,248.262385 84.88687,247.484609 84.03,246.51 C83.3449635,245.742538 82.8091288,244.854002 82.45,243.89 C82.0838346,242.925034 81.8941503,241.902094 81.89,240.87 L81.89,240.87 Z M84.89,241.06 C84.8314852,243.254204 85.5386151,245.400343 86.89,247.13 C87.3915445,247.793733 88.029108,248.342652 88.76,248.74 C90.2072421,249.405108 91.8727579,249.405108 93.32,248.74 C94.055213,248.344859 94.69648,247.795689 95.2,247.13 C96.5534901,245.382218 97.2601744,243.219764 97.2,241.01 C97.2070342,239.730289 97.0250719,238.456553 96.66,237.23 C96.3452218,236.143815 95.8296547,235.126248 95.14,234.23 C94.6734478,233.605425 94.0673117,233.098599 93.37,232.75 C91.9089792,232.133809 90.2610208,232.133809 88.8,232.75 C88.1010059,233.104732 87.492209,233.614343 87.02,234.24 C86.3295807,235.134317 85.8169979,236.152694 85.51,237.24 C85.1191667,238.476526 84.9103126,239.763337 84.89,241.06 Z" id="Shape" fill-rule="nonzero"></path>
                <path d="M115.23,232.3 L115.42,236.36 L115.13,236.36 C115.052111,235.760768 114.872889,235.179145 114.6,234.64 C114.332719,234.165379 113.963942,233.755626 113.52,233.44 C113.109419,233.137387 112.638914,232.926001 112.14,232.82 C111.445083,232.685037 110.737736,232.624694 110.03,232.64 L107.22,232.64 L107.22,240.08 L107.96,240.08 C108.53058,240.096546 109.101134,240.046203 109.66,239.93 C110.014387,239.846113 110.3372,239.662144 110.59,239.4 C110.820808,239.157899 110.994997,238.867583 111.1,238.55 C111.242445,238.077457 111.336265,237.591604 111.38,237.1 L111.67,237.1 L111.67,243.74 L111.38,243.74 C111.329225,243.215741 111.218502,242.699032 111.05,242.2 C110.919027,241.82983 110.714986,241.489762 110.45,241.2 C110.174631,240.920591 109.829265,240.720278 109.45,240.62 C108.958709,240.482954 108.449928,240.418936 107.94,240.43 L107.23,240.43 L107.23,243.36 C107.23,244.49 107.23,245.36 107.32,245.83 C107.359151,246.275079 107.470613,246.710796 107.65,247.12 C107.90741,247.694918 108.361198,248.159342 108.93,248.43 C109.645937,248.737334 110.421495,248.880829 111.2,248.85 C112.045988,248.87232 112.889179,248.743641 113.69,248.47 C114.333874,248.238265 114.901351,247.833418 115.33,247.3 C115.634467,246.936862 115.880731,246.528671 116.06,246.09 C116.282228,245.506041 116.452881,244.90374 116.57,244.29 L116.86,244.29 L116.7,249.22 L101.9,249.22 L101.9,248.93 C102.291051,248.919924 102.678508,248.85254 103.05,248.73 C103.350098,248.620281 103.620559,248.442256 103.84,248.21 C104.104022,247.930854 104.287217,247.585203 104.37,247.21 C104.481342,246.589834 104.528259,245.959817 104.51,245.33 L104.51,236.2 C104.528402,235.57018 104.481485,234.940148 104.37,234.32 C104.287695,233.944622 104.104436,233.598849 103.84,233.32 C103.627713,233.088624 103.363929,232.910483 103.07,232.8 C102.694966,232.677885 102.304274,232.610524 101.91,232.6 L101.91,232.31 L115.23,232.3 Z" id="Shape" fill-rule="nonzero"></path>
                <path d="M115.23,232.3 L115.42,236.36 L115.13,236.36 C115.052111,235.760768 114.872889,235.179145 114.6,234.64 C114.332719,234.165379 113.963942,233.755626 113.52,233.44 C113.109419,233.137387 112.638914,232.926001 112.14,232.82 C111.445083,232.685037 110.737736,232.624694 110.03,232.64 L107.22,232.64 L107.22,240.08 L107.96,240.08 C108.53058,240.096546 109.101134,240.046203 109.66,239.93 C110.014387,239.846113 110.3372,239.662144 110.59,239.4 C110.820808,239.157899 110.994997,238.867583 111.1,238.55 C111.242445,238.077457 111.336265,237.591604 111.38,237.1 L111.67,237.1 L111.67,243.74 L111.38,243.74 C111.329225,243.215741 111.218502,242.699032 111.05,242.2 C110.919027,241.82983 110.714986,241.489762 110.45,241.2 C110.174631,240.920591 109.829265,240.720278 109.45,240.62 C108.958709,240.482954 108.449928,240.418936 107.94,240.43 L107.23,240.43 L107.23,243.36 C107.23,244.49 107.23,245.36 107.32,245.83 C107.359151,246.275079 107.470613,246.710796 107.65,247.12 C107.90741,247.694918 108.361198,248.159342 108.93,248.43 C109.645937,248.737334 110.421495,248.880829 111.2,248.85 C112.045988,248.87232 112.889179,248.743641 113.69,248.47 C114.333874,248.238265 114.901351,247.833418 115.33,247.3 C115.634467,246.936862 115.880731,246.528671 116.06,246.09 C116.282228,245.506041 116.452881,244.90374 116.57,244.29 L116.86,244.29 L116.7,249.22 L101.9,249.22 L101.9,248.93 C102.291051,248.919924 102.678508,248.85254 103.05,248.73 C103.350098,248.620281 103.620559,248.442256 103.84,248.21 C104.104022,247.930854 104.287217,247.585203 104.37,247.21 C104.481342,246.589834 104.528259,245.959817 104.51,245.33 L104.51,236.2 C104.528402,235.57018 104.481485,234.940148 104.37,234.32 C104.287695,233.944622 104.104436,233.598849 103.84,233.32 C103.627713,233.088624 103.363929,232.910483 103.07,232.8 C102.694966,232.677885 102.304274,232.610524 101.91,232.6 L101.91,232.31 L115.23,232.3 Z" id="Shape" fill-rule="nonzero"></path>
                <path d="M129.42,240.94 L129.42,245.36 C129.400724,245.98984 129.447648,246.619962 129.56,247.24 C129.700451,247.940078 130.191789,248.518345 130.86,248.77 C131.23343,248.899758 131.62478,248.970606 132.02,248.98 L132.02,249.27 L124.1,249.27 L124.1,248.98 C124.495253,248.970932 124.886653,248.900075 125.26,248.77 C125.551487,248.659548 125.814577,248.485294 126.03,248.26 C126.299263,247.984648 126.483299,247.63741 126.56,247.26 C126.669347,246.639583 126.716248,246.00977 126.7,245.38 L126.7,236.25 C126.716047,235.620235 126.669148,234.990442 126.56,234.37 C126.483299,233.99259 126.299263,233.645352 126.03,233.37 C125.814868,233.13732 125.547525,232.959091 125.25,232.85 C124.878167,232.728828 124.49091,232.661479 124.1,232.65 L124.1,232.36 L132.04,232.36 C133.061358,232.371954 134.074201,232.547514 135.04,232.88 C135.807521,233.171456 136.469563,233.687152 136.94,234.36 C137.39463,235.036251 137.631879,235.835222 137.62,236.65 C137.659835,237.857924 137.116602,239.011365 136.16,239.75 C135.85469,239.98542 135.518136,240.177256 135.16,240.32 C134.692891,240.500914 134.211125,240.641429 133.72,240.74 C134.120037,240.889981 134.491917,241.106348 134.82,241.38 C135.023587,241.570628 135.198711,241.789534 135.34,242.03 C135.5,242.29 135.736667,242.75 136.05,243.41 C136.783333,244.923333 137.34,246.03 137.72,246.73 C137.99272,247.262843 138.310546,247.771366 138.67,248.25 C138.832237,248.465298 139.036324,248.645576 139.27,248.78 C139.522069,248.895381 139.793289,248.963186 140.07,248.98 L140.07,249.27 L135.95,249.27 L135.55,248.4 L134.68,246.4 C134.214811,245.325257 133.690681,244.276997 133.11,243.26 C132.744059,242.559726 132.252566,241.932649 131.66,241.41 C131.444279,241.248874 131.199964,241.130111 130.94,241.06 C130.63283,240.982356 130.316797,240.945373 130,240.95 L129.42,240.94 Z M129.42,240.67 L129.89,240.67 C130.627425,240.697814 131.365603,240.640773 132.09,240.5 C132.560999,240.369926 132.991159,240.122153 133.34,239.78 C134.191809,238.989232 134.664898,237.872012 134.64,236.71 C134.643314,236.07685 134.513863,235.450037 134.26,234.87 C134.040435,234.325991 133.698211,233.840033 133.26,233.45 C132.896702,233.161931 132.472694,232.960185 132.02,232.86 C131.361115,232.73353 130.690778,232.676551 130.02,232.69 L129.42,232.69 L129.42,240.67 Z" id="Shape" fill-rule="nonzero"></path>
                <path d="M129.42,240.94 L129.42,245.36 C129.400724,245.98984 129.447648,246.619962 129.56,247.24 C129.700451,247.940078 130.191789,248.518345 130.86,248.77 C131.23343,248.899758 131.62478,248.970606 132.02,248.98 L132.02,249.27 L124.1,249.27 L124.1,248.98 C124.495253,248.970932 124.886653,248.900075 125.26,248.77 C125.551487,248.659548 125.814577,248.485294 126.03,248.26 C126.299263,247.984648 126.483299,247.63741 126.56,247.26 C126.669347,246.639583 126.716248,246.00977 126.7,245.38 L126.7,236.25 C126.716047,235.620235 126.669148,234.990442 126.56,234.37 C126.483299,233.99259 126.299263,233.645352 126.03,233.37 C125.814868,233.13732 125.547525,232.959091 125.25,232.85 C124.878167,232.728828 124.49091,232.661479 124.1,232.65 L124.1,232.36 L132.04,232.36 C133.061358,232.371954 134.074201,232.547514 135.04,232.88 C135.807521,233.171456 136.469563,233.687152 136.94,234.36 C137.39463,235.036251 137.631879,235.835222 137.62,236.65 C137.659835,237.857924 137.116602,239.011365 136.16,239.75 C135.85469,239.98542 135.518136,240.177256 135.16,240.32 C134.692891,240.500914 134.211125,240.641429 133.72,240.74 C134.120037,240.889981 134.491917,241.106348 134.82,241.38 C135.023587,241.570628 135.198711,241.789534 135.34,242.03 C135.5,242.29 135.736667,242.75 136.05,243.41 C136.783333,244.923333 137.34,246.03 137.72,246.73 C137.99272,247.262843 138.310546,247.771366 138.67,248.25 C138.832237,248.465298 139.036324,248.645576 139.27,248.78 C139.522069,248.895381 139.793289,248.963186 140.07,248.98 L140.07,249.27 L135.95,249.27 L135.55,248.4 L134.68,246.4 C134.214811,245.325257 133.690681,244.276997 133.11,243.26 C132.744059,242.559726 132.252566,241.932649 131.66,241.41 C131.444279,241.248874 131.199964,241.130111 130.94,241.06 C130.63283,240.982356 130.316797,240.945373 130,240.95 L129.42,240.94 Z M129.42,240.67 L129.89,240.67 C130.627425,240.697814 131.365603,240.640773 132.09,240.5 C132.560999,240.369926 132.991159,240.122153 133.34,239.78 C134.191809,238.989232 134.664898,237.872012 134.64,236.71 C134.643314,236.07685 134.513863,235.450037 134.26,234.87 C134.040435,234.325991 133.698211,233.840033 133.26,233.45 C132.896702,233.161931 132.472694,232.960185 132.02,232.86 C131.361115,232.73353 130.690778,232.676551 130.02,232.69 L129.42,232.69 L129.42,240.67 Z" id="Shape" fill-rule="nonzero"></path>
                <path d="M153.82,232.3 L154.03,236.39 L153.74,236.39 C153.662111,235.790768 153.482889,235.209145 153.21,234.67 C152.942719,234.195379 152.573942,233.785626 152.13,233.47 C151.719419,233.167387 151.248914,232.956001 150.75,232.85 C150.055083,232.715037 149.347736,232.654694 148.64,232.67 L145.82,232.67 L145.82,240.11 L146.56,240.11 C147.130577,240.126454 147.70112,240.076112 148.26,239.96 C148.614387,239.876113 148.9372,239.692144 149.19,239.43 C149.420808,239.187899 149.594997,238.897583 149.7,238.58 C149.841514,238.107228 149.935316,237.62147 149.98,237.13 L150.27,237.13 L150.27,243.77 L149.98,243.77 C149.929663,243.245673 149.81893,242.728915 149.65,242.23 C149.519275,241.859713 149.315206,241.519598 149.05,241.23 C148.774631,240.950591 148.429265,240.750278 148.05,240.65 C147.558738,240.512812 147.049935,240.44879 146.54,240.46 L145.83,240.46 L145.83,243.36 C145.83,244.49 145.83,245.36 145.92,245.83 C145.96179,246.275742 146.076659,246.711566 146.26,247.12 C146.51741,247.694918 146.971198,248.159342 147.54,248.43 C148.255937,248.737334 149.031495,248.880829 149.81,248.85 C150.655988,248.87232 151.499179,248.743641 152.3,248.47 C152.943874,248.238265 153.511351,247.833418 153.94,247.3 C154.244467,246.936862 154.490731,246.528671 154.67,246.09 C154.892228,245.506041 155.062881,244.90374 155.18,244.29 L155.42,244.29 L155.26,249.22 L140.5,249.22 L140.5,248.93 C140.891051,248.919924 141.278508,248.85254 141.65,248.73 C141.949933,248.619954 142.220324,248.441975 142.44,248.21 C142.703612,247.93056 142.886744,247.585029 142.97,247.21 C143.080849,246.589772 143.127762,245.959806 143.11,245.33 L143.11,236.2 C143.127903,235.570191 143.080989,234.940211 142.97,234.32 C142.887217,233.944797 142.704022,233.599146 142.44,233.32 C142.224868,233.08732 141.957525,232.909091 141.66,232.8 C141.285,232.677749 140.894288,232.610385 140.5,232.6 L140.5,232.31 L153.82,232.3 Z" id="Shape" fill-rule="nonzero"></path>
                <path d="M153.82,232.3 L154.03,236.39 L153.74,236.39 C153.662111,235.790768 153.482889,235.209145 153.21,234.67 C152.942719,234.195379 152.573942,233.785626 152.13,233.47 C151.719419,233.167387 151.248914,232.956001 150.75,232.85 C150.055083,232.715037 149.347736,232.654694 148.64,232.67 L145.82,232.67 L145.82,240.11 L146.56,240.11 C147.130577,240.126454 147.70112,240.076112 148.26,239.96 C148.614387,239.876113 148.9372,239.692144 149.19,239.43 C149.420808,239.187899 149.594997,238.897583 149.7,238.58 C149.841514,238.107228 149.935316,237.62147 149.98,237.13 L150.27,237.13 L150.27,243.77 L149.98,243.77 C149.929663,243.245673 149.81893,242.728915 149.65,242.23 C149.519275,241.859713 149.315206,241.519598 149.05,241.23 C148.774631,240.950591 148.429265,240.750278 148.05,240.65 C147.558738,240.512812 147.049935,240.44879 146.54,240.46 L145.83,240.46 L145.83,243.36 C145.83,244.49 145.83,245.36 145.92,245.83 C145.96179,246.275742 146.076659,246.711566 146.26,247.12 C146.51741,247.694918 146.971198,248.159342 147.54,248.43 C148.255937,248.737334 149.031495,248.880829 149.81,248.85 C150.655988,248.87232 151.499179,248.743641 152.3,248.47 C152.943874,248.238265 153.511351,247.833418 153.94,247.3 C154.244467,246.936862 154.490731,246.528671 154.67,246.09 C154.892228,245.506041 155.062881,244.90374 155.18,244.29 L155.42,244.29 L155.26,249.22 L140.5,249.22 L140.5,248.93 C140.891051,248.919924 141.278508,248.85254 141.65,248.73 C141.949933,248.619954 142.220324,248.441975 142.44,248.21 C142.703612,247.93056 142.886744,247.585029 142.97,247.21 C143.080849,246.589772 143.127762,245.959806 143.11,245.33 L143.11,236.2 C143.127903,235.570191 143.080989,234.940211 142.97,234.32 C142.887217,233.944797 142.704022,233.599146 142.44,233.32 C142.224868,233.08732 141.957525,232.909091 141.66,232.8 C141.285,232.677749 140.894288,232.610385 140.5,232.6 L140.5,232.31 L153.82,232.3 Z" id="Shape" fill-rule="nonzero"></path>
                <path d="M161.63,240.88 L161.63,245.36 C161.610724,245.98984 161.657648,246.619962 161.77,247.24 C161.913562,247.93629 162.404399,248.510191 163.07,248.76 C163.443909,248.887925 163.834974,248.958721 164.23,248.97 L164.23,249.26 L156.32,249.26 L156.32,248.97 C156.715058,248.959027 157.106168,248.888222 157.48,248.76 C157.775545,248.651815 158.042372,248.477351 158.26,248.25 C158.529263,247.974648 158.713299,247.62741 158.79,247.25 C158.898818,246.629517 158.945715,245.999757 158.93,245.37 L158.93,236.24 C158.941213,235.691849 158.911128,235.143632 158.84,234.6 C158.796733,234.268544 158.687955,233.949009 158.52,233.66 C158.321549,233.341251 158.037378,233.084803 157.7,232.92 C157.292561,232.741547 156.854613,232.643093 156.41,232.63 L156.33,232.63 L156.33,232.34 L163.8,232.34 C164.767514,232.314016 165.735288,232.380989 166.69,232.54 C167.30928,232.670899 167.890634,232.941058 168.39,233.33 C169.530706,234.155924 170.189504,235.492236 170.15,236.9 C170.231962,238.256737 169.538536,239.542868 168.36,240.22 C167.665944,240.607296 166.893407,240.832904 166.1,240.88 C165.82,240.88 165.153333,240.88 164.1,240.88 L161.63,240.88 Z M161.63,240.48 L162.84,240.48 C163.475023,240.498504 164.109886,240.438041 164.73,240.3 C165.171653,240.180457 165.576973,239.953753 165.91,239.64 C166.727036,238.886306 167.169817,237.81046 167.12,236.7 C167.12981,236.059512 167.010787,235.423585 166.77,234.83 C166.557692,234.293405 166.213806,233.818842 165.77,233.45 C165.258682,233.026911 164.631047,232.768883 163.97,232.71 C163.776667,232.71 163.343333,232.71 162.67,232.71 L161.67,232.71 L161.63,240.48 Z" id="Shape" fill-rule="nonzero"></path>
                <path d="M161.63,240.88 L161.63,245.36 C161.610724,245.98984 161.657648,246.619962 161.77,247.24 C161.913562,247.93629 162.404399,248.510191 163.07,248.76 C163.443909,248.887925 163.834974,248.958721 164.23,248.97 L164.23,249.26 L156.32,249.26 L156.32,248.97 C156.715058,248.959027 157.106168,248.888222 157.48,248.76 C157.775545,248.651815 158.042372,248.477351 158.26,248.25 C158.529263,247.974648 158.713299,247.62741 158.79,247.25 C158.898818,246.629517 158.945715,245.999757 158.93,245.37 L158.93,236.24 C158.941213,235.691849 158.911128,235.143632 158.84,234.6 C158.796733,234.268544 158.687955,233.949009 158.52,233.66 C158.321549,233.341251 158.037378,233.084803 157.7,232.92 C157.292561,232.741547 156.854613,232.643093 156.41,232.63 L156.33,232.63 L156.33,232.34 L163.8,232.34 C164.767514,232.314016 165.735288,232.380989 166.69,232.54 C167.30928,232.670899 167.890634,232.941058 168.39,233.33 C169.530706,234.155924 170.189504,235.492236 170.15,236.9 C170.231962,238.256737 169.538536,239.542868 168.36,240.22 C167.665944,240.607296 166.893407,240.832904 166.1,240.88 C165.82,240.88 165.153333,240.88 164.1,240.88 L161.63,240.88 Z M161.63,240.48 L162.84,240.48 C163.475023,240.498504 164.109886,240.438041 164.73,240.3 C165.171653,240.180457 165.576973,239.953753 165.91,239.64 C166.727036,238.886306 167.169817,237.81046 167.12,236.7 C167.12981,236.059512 167.010787,235.423585 166.77,234.83 C166.557692,234.293405 166.213806,233.818842 165.77,233.45 C165.258682,233.026911 164.631047,232.768883 163.97,232.71 C163.776667,232.71 163.343333,232.71 162.67,232.71 L161.67,232.71 L161.63,240.48 Z" id="Shape" fill-rule="nonzero"></path>
                <path d="M188.24,249.22 L180.1,249.22 L180.1,248.93 C180.633821,248.917714 181.158863,248.791567 181.64,248.56 C182.123119,248.288477 182.41868,247.774124 182.41,247.22 C182.376805,246.749188 182.258206,246.288346 182.06,245.86 L181.85,245.34 L180.66,242.41 L175.21,242.41 L174.56,244.12 L174.25,244.89 C173.935107,245.563473 173.745351,246.28861 173.69,247.03 C173.685879,247.32865 173.754522,247.623815 173.89,247.89 C174.019054,248.144555 174.20775,248.364128 174.44,248.53 C174.810712,248.770591 175.238577,248.908612 175.68,248.93 L175.68,249.22 L170.13,249.22 L170.13,248.93 C170.533311,248.916202 170.92753,248.806506 171.28,248.61 C171.672681,248.374866 172.013015,248.06176 172.28,247.69 C172.582598,247.282008 172.84073,246.842848 173.05,246.38 C173.303333,245.846667 173.636667,245.046667 174.05,243.98 L178.59,232.29 L179.3,232.29 L184.69,245.29 C184.983133,246.011692 185.317004,246.716158 185.69,247.4 C185.879038,247.783067 186.144486,248.123385 186.47,248.4 C186.675111,248.552111 186.905244,248.667178 187.15,248.74 C187.526561,248.843027 187.911329,248.913289 188.3,248.95 L188.24,249.22 Z M180.42,241.9 L177.82,235.48 L175.42,241.9 L180.42,241.9 Z" id="Shape" fill-rule="nonzero"></path>
                <path d="M188.24,249.22 L180.1,249.22 L180.1,248.93 C180.633821,248.917714 181.158863,248.791567 181.64,248.56 C182.123119,248.288477 182.41868,247.774124 182.41,247.22 C182.376805,246.749188 182.258206,246.288346 182.06,245.86 L181.85,245.34 L180.66,242.41 L175.21,242.41 L174.56,244.12 L174.25,244.89 C173.935107,245.563473 173.745351,246.28861 173.69,247.03 C173.685879,247.32865 173.754522,247.623815 173.89,247.89 C174.019054,248.144555 174.20775,248.364128 174.44,248.53 C174.810712,248.770591 175.238577,248.908612 175.68,248.93 L175.68,249.22 L170.13,249.22 L170.13,248.93 C170.533311,248.916202 170.92753,248.806506 171.28,248.61 C171.672681,248.374866 172.013015,248.06176 172.28,247.69 C172.582598,247.282008 172.84073,246.842848 173.05,246.38 C173.303333,245.846667 173.636667,245.046667 174.05,243.98 L178.59,232.29 L179.3,232.29 L184.69,245.29 C184.983133,246.011692 185.317004,246.716158 185.69,247.4 C185.879038,247.783067 186.144486,248.123385 186.47,248.4 C186.675111,248.552111 186.905244,248.667178 187.15,248.74 C187.526561,248.843027 187.911329,248.913289 188.3,248.95 L188.24,249.22 Z M180.42,241.9 L177.82,235.48 L175.42,241.9 L180.42,241.9 Z" id="Shape" fill-rule="nonzero"></path>
                <path d="M196.51,232.3 L196.51,232.59 C196.118949,232.600076 195.731492,232.66746 195.36,232.79 C195.060711,232.901322 194.790593,233.079122 194.57,233.31 C194.222229,233.69056 194.011119,234.176113 193.97,234.69 C193.915164,235.191445 193.888456,235.695568 193.89,236.2 L193.89,245.36 C193.879715,245.905133 193.913155,246.450213 193.99,246.99 C194.029429,247.341227 194.138199,247.681132 194.31,247.99 C194.511154,248.310166 194.798945,248.566751 195.14,248.73 C195.567816,248.910522 196.025789,249.008901 196.49,249.02 L196.49,249.31 L188.57,249.31 L188.57,249.02 C188.964618,249.01303 189.355832,248.945579 189.73,248.82 C190.025546,248.707043 190.292061,248.529367 190.51,248.3 C190.779263,248.024648 190.963299,247.67741 191.04,247.3 C191.148818,246.679517 191.195715,246.049757 191.18,245.42 L191.18,236.29 C191.195518,235.660248 191.148622,235.030507 191.04,234.41 C190.888959,233.711882 190.396528,233.136753 189.73,232.88 C189.358101,232.759094 188.970882,232.691751 188.58,232.68 L188.58,232.39 L196.51,232.3 Z" id="Shape" fill-rule="nonzero"></path>
                <path d="M196.51,232.3 L196.51,232.59 C196.118949,232.600076 195.731492,232.66746 195.36,232.79 C195.060711,232.901322 194.790593,233.079122 194.57,233.31 C194.222229,233.69056 194.011119,234.176113 193.97,234.69 C193.915164,235.191445 193.888456,235.695568 193.89,236.2 L193.89,245.36 C193.879715,245.905133 193.913155,246.450213 193.99,246.99 C194.029429,247.341227 194.138199,247.681132 194.31,247.99 C194.511154,248.310166 194.798945,248.566751 195.14,248.73 C195.567816,248.910522 196.025789,249.008901 196.49,249.02 L196.49,249.31 L188.57,249.31 L188.57,249.02 C188.964618,249.01303 189.355832,248.945579 189.73,248.82 C190.025546,248.707043 190.292061,248.529367 190.51,248.3 C190.779263,248.024648 190.963299,247.67741 191.04,247.3 C191.148818,246.679517 191.195715,246.049757 191.18,245.42 L191.18,236.29 C191.195518,235.660248 191.148622,235.030507 191.04,234.41 C190.888959,233.711882 190.396528,233.136753 189.73,232.88 C189.358101,232.759094 188.970882,232.691751 188.58,232.68 L188.58,232.39 L196.51,232.3 Z" id="Shape" fill-rule="nonzero"></path>
                <path d="M203.04,240.94 L203.04,245.36 C203.021454,245.989824 203.068372,246.61987 203.18,247.24 C203.320451,247.940078 203.811789,248.518345 204.48,248.77 C204.853388,248.899916 205.244764,248.970768 205.64,248.98 L205.64,249.27 L197.72,249.27 L197.72,248.98 C198.115253,248.970932 198.506653,248.900075 198.88,248.77 C199.171643,248.659852 199.434796,248.485556 199.65,248.26 C199.919263,247.984648 200.103299,247.63741 200.18,247.26 C200.289548,246.639608 200.33645,246.009775 200.32,245.38 L200.32,236.25 C200.336248,235.62023 200.289347,234.990417 200.18,234.37 C200.103299,233.99259 199.919263,233.645352 199.65,233.37 C199.434868,233.13732 199.167525,232.959091 198.87,232.85 C198.498101,232.729094 198.110882,232.661751 197.72,232.65 L197.72,232.36 L205.67,232.36 C206.691358,232.371954 207.704201,232.547514 208.67,232.88 C209.437215,233.172 210.099111,233.687582 210.57,234.36 C211.021098,235.037398 211.254833,235.836281 211.24,236.65 C211.279835,237.857924 210.736602,239.011365 209.78,239.75 C209.474547,239.985205 209.138024,240.177024 208.78,240.32 C208.312907,240.500961 207.831137,240.641477 207.34,240.74 C207.740119,240.889807 208.112028,241.106191 208.44,241.38 C208.642696,241.57145 208.817714,241.790222 208.96,242.03 C209.113333,242.29 209.35,242.75 209.67,243.41 C210.403333,244.923333 210.956667,246.03 211.33,246.73 C211.602677,247.262867 211.920506,247.771393 212.28,248.25 C212.442237,248.465298 212.646324,248.645576 212.88,248.78 C213.132294,248.894737 213.403394,248.962512 213.68,248.98 L213.68,249.27 L209.56,249.27 L209.16,248.4 L208.29,246.4 C207.824408,245.325444 207.300289,244.277207 206.72,243.26 C206.353868,242.55985 205.8624,241.932805 205.27,241.41 C205.054029,241.249286 204.809796,241.130561 204.55,241.06 C204.24281,240.982469 203.926791,240.945488 203.61,240.95 L203.04,240.94 Z M203.04,240.67 L203.51,240.67 C204.247421,240.697637 204.985579,240.640598 205.71,240.5 C206.18117,240.370335 206.611427,240.122507 206.96,239.78 C207.811809,238.989232 208.284898,237.872012 208.26,236.71 C208.263909,236.076791 208.134434,235.449856 207.88,234.87 C207.660754,234.325817 207.318482,233.839791 206.88,233.45 C206.517842,233.160107 206.09339,232.95815 205.64,232.86 C204.981115,232.73353 204.310778,232.676551 203.64,232.69 L203.13,232.69 L203.04,240.67 Z" id="Shape" fill-rule="nonzero"></path>
                <path d="M203.04,240.94 L203.04,245.36 C203.021454,245.989824 203.068372,246.61987 203.18,247.24 C203.320451,247.940078 203.811789,248.518345 204.48,248.77 C204.853388,248.899916 205.244764,248.970768 205.64,248.98 L205.64,249.27 L197.72,249.27 L197.72,248.98 C198.115253,248.970932 198.506653,248.900075 198.88,248.77 C199.171643,248.659852 199.434796,248.485556 199.65,248.26 C199.919263,247.984648 200.103299,247.63741 200.18,247.26 C200.289548,246.639608 200.33645,246.009775 200.32,245.38 L200.32,236.25 C200.336248,235.62023 200.289347,234.990417 200.18,234.37 C200.103299,233.99259 199.919263,233.645352 199.65,233.37 C199.434868,233.13732 199.167525,232.959091 198.87,232.85 C198.498101,232.729094 198.110882,232.661751 197.72,232.65 L197.72,232.36 L205.67,232.36 C206.691358,232.371954 207.704201,232.547514 208.67,232.88 C209.437215,233.172 210.099111,233.687582 210.57,234.36 C211.021098,235.037398 211.254833,235.836281 211.24,236.65 C211.279835,237.857924 210.736602,239.011365 209.78,239.75 C209.474547,239.985205 209.138024,240.177024 208.78,240.32 C208.312907,240.500961 207.831137,240.641477 207.34,240.74 C207.740119,240.889807 208.112028,241.106191 208.44,241.38 C208.642696,241.57145 208.817714,241.790222 208.96,242.03 C209.113333,242.29 209.35,242.75 209.67,243.41 C210.403333,244.923333 210.956667,246.03 211.33,246.73 C211.602677,247.262867 211.920506,247.771393 212.28,248.25 C212.442237,248.465298 212.646324,248.645576 212.88,248.78 C213.132294,248.894737 213.403394,248.962512 213.68,248.98 L213.68,249.27 L209.56,249.27 L209.16,248.4 L208.29,246.4 C207.824408,245.325444 207.300289,244.277207 206.72,243.26 C206.353868,242.55985 205.8624,241.932805 205.27,241.41 C205.054029,241.249286 204.809796,241.130561 204.55,241.06 C204.24281,240.982469 203.926791,240.945488 203.61,240.95 L203.04,240.94 Z M203.04,240.67 L203.51,240.67 C204.247421,240.697637 204.985579,240.640598 205.71,240.5 C206.18117,240.370335 206.611427,240.122507 206.96,239.78 C207.811809,238.989232 208.284898,237.872012 208.26,236.71 C208.263909,236.076791 208.134434,235.449856 207.88,234.87 C207.660754,234.325817 207.318482,233.839791 206.88,233.45 C206.517842,233.160107 206.09339,232.95815 205.64,232.86 C204.981115,232.73353 204.310778,232.676551 203.64,232.69 L203.13,232.69 L203.04,240.67 Z" id="Shape" fill-rule="nonzero"></path>
                <path d="M64.42,260.69 L64.58,266.81 L64.27,266.81 L64.04,266.21 C63.72,265.33 63.46,264.663333 63.26,264.21 C62.8823028,263.414445 62.3562222,262.698297 61.71,262.1 C61.2511229,261.652658 60.7115967,261.296367 60.12,261.05 C59.5297329,260.824063 58.9019811,260.712086 58.27,260.72 C57.3324874,260.696618 56.4062136,260.928186 55.59,261.39 C54.8693871,261.83155 54.2383879,262.404877 53.73,263.08 C53.1385091,263.842367 52.663341,264.688234 52.32,265.59 C51.7786576,267.034369 51.5140501,268.567735 51.54,270.11 C51.5227202,271.41921 51.7013632,272.723641 52.07,273.98 C52.379005,275.043129 52.9107908,276.028296 53.63,276.87 C54.8858615,278.306886 56.7229454,279.100506 58.63,279.03 C59.5904984,279.044027 60.5436051,278.860213 61.43,278.49 C62.205862,278.174121 62.8754291,277.643324 63.36,276.96 C63.9559888,276.03309 64.3479964,274.990009 64.51,273.9 L64.83,273.95 C64.732311,275.177674 64.3264521,276.360856 63.65,277.39 C63.0341839,278.225128 62.1954509,278.869774 61.23,279.25 C60.0941839,279.697853 58.8806575,279.915404 57.66,279.89 C56.4346924,279.894505 55.2163577,279.705511 54.05,279.33 C52.2785255,278.776088 50.757079,277.619081 49.75,276.06 C48.6847,274.379343 48.1450189,272.419082 48.2,270.43 C48.1816936,268.844729 48.487976,267.272479 49.1,265.81 C49.6421833,264.483609 50.5086641,263.314548 51.62,262.41 C52.5213326,261.716568 53.5364816,261.185306 54.62,260.84 C56.8822238,260.025329 59.3577762,260.025329 61.62,260.84 L62.74,261.21 C62.921503,261.283083 63.1144373,261.323701 63.31,261.33 C63.5329168,261.330967 63.7421516,261.222613 63.87,261.04 C63.9594406,260.89688 64.0363915,260.746323 64.1,260.59 L64.42,260.69 Z" id="Shape" fill-rule="nonzero"></path>
                <path d="M67.01,270.25 C67.0012427,268.767644 67.3439419,267.304319 68.01,265.98 C68.6954513,264.634658 69.6766542,263.462001 70.88,262.55 C71.7879006,261.844495 72.7999935,261.28447 73.88,260.89 C74.9348182,260.507655 76.0480253,260.311406 77.17,260.31 C78.5822194,260.31289 79.9760298,260.630597 81.25,261.24 C82.5690025,261.860595 83.7440329,262.749531 84.7,263.85 C86.2580381,265.549807 87.1185143,267.774191 87.11,270.08 C87.1116662,271.236009 86.8980237,272.382218 86.48,273.46 C86.0591632,274.563776 85.4388371,275.580704 84.65,276.46 C83.6805975,277.562195 82.48743,278.445139 81.15,279.05 C78.4864752,280.254323 75.4335248,280.254323 72.77,279.05 C71.4609215,278.467645 70.2940052,277.607812 69.35,276.53 C68.5905117,275.681228 67.9969206,274.697563 67.6,273.63 C67.1940731,272.549456 66.987398,271.404273 66.99,270.25 M70.3,270.46 C70.2226254,272.876048 70.9860505,275.24408 72.46,277.16 C73.0128075,277.889945 73.7151394,278.493405 74.52,278.93 C75.3009992,279.3104 76.161493,279.498954 77.03,279.48 C77.9049004,279.49869 78.7718212,279.310229 79.56,278.93 C80.3696352,278.491935 81.0755949,277.884878 81.63,277.15 C83.1060719,275.216002 83.8690667,272.831643 83.79,270.4 C83.8005138,268.988479 83.6016853,267.5832 83.2,266.23 C82.8549523,265.020952 82.2849929,263.887818 81.52,262.89 C80.9928978,262.192392 80.3073454,261.630239 79.52,261.25 C77.92,260.583333 76.12,260.583333 74.52,261.25 C73.7350959,261.63405 73.050362,262.195532 72.52,262.89 C71.7542682,263.882215 71.187232,265.012892 70.85,266.22 C70.4487385,267.593819 70.2499802,269.018815 70.26,270.45" id="Shape" fill-rule="nonzero"></path>
                <path d="M92.53,263.26 L92.53,275.17 C92.5099304,275.867033 92.5635615,276.564237 92.69,277.25 C92.7769356,277.666527 92.977713,278.050774 93.27,278.36 C93.5122106,278.614492 93.8099571,278.809568 94.14,278.93 C94.5499869,279.066282 94.9780617,279.140437 95.41,279.15 L95.41,279.46 L89.1,279.46 L89.1,279.15 C89.5319093,279.140139 89.9599401,279.065992 90.37,278.93 C90.7003714,278.810223 90.9982595,278.615055 91.24,278.36 C91.5330523,278.047391 91.733805,277.659731 91.82,277.24 C91.9450109,276.55742 91.9986332,275.863682 91.98,275.17 L91.98,265.07 C91.998665,264.379632 91.9450397,263.689206 91.82,263.01 C91.733805,262.590269 91.5330523,262.202609 91.24,261.89 C91.0098146,261.654144 90.7295807,261.473018 90.42,261.36 C90.006319,261.224743 89.5751018,261.150627 89.14,261.14 L89.14,260.83 L94.41,260.83 L105.52,275.01 L105.52,265.13 C105.53933,264.432985 105.485705,263.735859 105.36,263.05 C105.196666,262.278437 104.6494,261.644363 103.91,261.37 C103.499726,261.234865 103.071823,261.16074 102.64,261.15 L102.64,260.84 L108.95,260.84 L108.95,261.15 C108.160826,261.104293 107.388505,261.39074 106.82,261.94 C106.526516,262.252303 106.325696,262.640093 106.24,263.06 C106.1143,263.73912 106.060669,264.429616 106.08,265.12 L106.08,279.52 L105.42,279.52 L92.53,263.26 Z" id="Shape" fill-rule="nonzero"></path>
                <path d="M127.11,260.69 L127.27,266.81 L126.96,266.81 L126.73,266.21 C126.41,265.33 126.15,264.663333 125.95,264.21 C125.572727,263.414192 125.046591,262.697968 124.4,262.1 C123.940971,261.652847 123.401483,261.296581 122.81,261.05 C122.219733,260.824063 121.591981,260.712086 120.96,260.72 C120.022432,260.696114 119.096026,260.927716 118.28,261.39 C117.559387,261.83155 116.928388,262.404877 116.42,263.08 C115.828509,263.842367 115.353341,264.688234 115.01,265.59 C114.468195,267.034243 114.203572,268.567699 114.23,270.11 C114.212269,271.419238 114.390921,272.723736 114.76,273.98 C115.068148,275.04348 115.600027,276.02882 116.32,276.87 C117.574992,278.308078 119.412674,279.101956 121.32,279.03 C122.283857,279.045405 123.240507,278.861564 124.13,278.49 C124.90558,278.173638 125.575023,277.64294 126.06,276.96 C126.655989,276.03309 127.047996,274.990009 127.21,273.9 L127.52,273.95 C127.423165,275.177851 127.017235,276.36124 126.34,277.39 C125.724575,278.225511 124.88572,278.87025 123.92,279.25 C122.784111,279.697596 121.570637,279.915137 120.35,279.89 C119.12468,279.894673 117.906319,279.705675 116.74,279.33 C114.970872,278.77155 113.450825,277.615607 112.44,276.06 C111.3747,274.379343 110.835019,272.419082 110.89,270.43 C110.871694,268.844729 111.177976,267.272479 111.79,265.81 C112.331808,264.483398 113.198353,263.31425 114.31,262.41 C115.211333,261.716568 116.226482,261.185306 117.31,260.84 C119.572224,260.025329 122.047776,260.025329 124.31,260.84 L125.43,261.21 C125.611442,261.283283 125.804412,261.323909 126,261.33 C126.222917,261.330967 126.432152,261.222613 126.56,261.04 C126.649887,260.897133 126.726858,260.746537 126.79,260.59 L127.11,260.69 Z" id="Shape" fill-rule="nonzero"></path>
                <path d="M137.78,260.79 L137.78,261.1 C137.348247,261.111453 136.920448,261.18556 136.51,261.32 C136.18044,261.441393 135.882899,261.636334 135.64,261.89 C135.257565,262.309481 135.025396,262.844173 134.98,263.41 C134.922307,263.964746 134.895598,264.522279 134.9,265.08 L134.9,275.17 C134.889187,275.768639 134.925969,276.36719 135.01,276.96 C135.06176,277.329799 135.183968,277.686237 135.37,278.01 C135.594157,278.361346 135.913093,278.642148 136.29,278.82 C136.762232,279.019073 137.267672,279.127624 137.78,279.14 L137.78,279.45 L129.03,279.45 L129.03,279.14 C129.465844,279.128516 129.897423,279.050967 130.31,278.91 C130.635974,278.787268 130.929973,278.592408 131.17,278.34 C131.470438,278.035257 131.675476,277.649508 131.76,277.23 C131.88024,276.543527 131.930498,275.846623 131.91,275.15 L131.91,265.08 C131.930567,264.383376 131.880309,263.686465 131.76,263 C131.674927,262.580689 131.469968,262.195088 131.17,261.89 C130.933072,261.633923 130.638146,261.438449 130.31,261.32 C129.899218,261.186906 129.471614,261.112833 129.04,261.1 L129.04,260.79 L137.78,260.79 Z" id="Shape" fill-rule="nonzero"></path>
                <path d="M153.84,260.79 L154.07,265.31 L153.75,265.31 C153.662874,264.64771 153.463343,264.005149 153.16,263.41 C152.866342,262.884282 152.459955,262.430084 151.97,262.08 C151.516646,261.749214 150.998759,261.517528 150.45,261.4 C149.682753,261.249969 148.901592,261.182917 148.12,261.2 L144.99,261.2 L144.99,269.41 L145.81,269.41 C146.440811,269.432058 147.071989,269.378341 147.69,269.25 C148.072579,269.152241 148.419428,268.947601 148.69,268.66 C148.947125,268.392635 149.141793,268.071603 149.26,267.72 C149.41614,267.201674 149.519991,266.669018 149.57,266.13 L149.88,266.13 L149.83,273.46 L149.52,273.46 C149.466363,272.881285 149.34555,272.31078 149.16,271.76 C149.016252,271.352661 148.791771,270.978525 148.5,270.66 C148.205064,270.35724 147.836257,270.136645 147.43,270.02 C146.886793,269.867744 146.323992,269.796972 145.76,269.81 L144.98,269.81 L144.98,272.94 C144.98,274.193333 145.013333,275.103333 145.08,275.67 C145.12281,276.16395 145.247865,276.647274 145.45,277.1 C145.740507,277.733623 146.242588,278.246312 146.87,278.55 C147.662528,278.886485 148.519654,279.043568 149.38,279.01 C150.314374,279.035051 151.245699,278.892813 152.13,278.59 C152.84036,278.334396 153.466594,277.888074 153.94,277.3 C154.275161,276.89796 154.545115,276.445787 154.74,275.96 C154.987952,275.311229 155.178679,274.642011 155.31,273.96 L155.62,273.96 L155.44,279.41 L139.12,279.41 L139.12,279.1 C139.551924,279.090288 139.979977,279.016137 140.39,278.88 C140.720206,278.759894 141.018023,278.564773 141.26,278.31 C141.553052,277.997391 141.753805,277.609731 141.84,277.19 C141.965011,276.50742 142.018633,275.813682 142,275.12 L142,265.08 C142.018633,264.386318 141.965011,263.69258 141.84,263.01 C141.753805,262.590269 141.553052,262.202609 141.26,261.89 C141.02384,261.651887 140.736586,261.470644 140.42,261.36 C140.006115,261.225566 139.575019,261.151472 139.14,261.14 L139.14,260.83 L153.84,260.79 Z" id="Shape" fill-rule="nonzero"></path>
                <path d="M162.42,270.36 L162.42,275.21 C162.400634,275.903701 162.454263,276.597515 162.58,277.28 C162.739653,278.050128 163.28335,278.684441 164.02,278.96 C164.432499,279.101268 164.864124,279.178826 165.3,279.19 L165.3,279.5 L156.55,279.5 L156.55,279.19 C156.985844,279.178516 157.417423,279.100967 157.83,278.96 C158.152388,278.835944 158.442849,278.641164 158.68,278.39 C158.980438,278.085257 159.185476,277.699508 159.27,277.28 C159.389229,276.593403 159.439479,275.8966 159.42,275.2 L159.42,265.08 C159.439479,264.3834 159.389229,263.686597 159.27,263 C159.184927,262.580689 158.979968,262.195088 158.68,261.89 C158.443847,261.633014 158.148682,261.437381 157.82,261.32 C157.409251,261.186774 156.981628,261.112698 156.55,261.1 L156.55,260.79 L163.15,260.79 L165.33,260.79 C166.463475,260.799185 167.588,260.991672 168.66,261.36 C169.509195,261.682691 170.241146,262.25431 170.76,263 C171.26395,263.74253 171.52592,264.622747 171.51,265.52 C171.552154,266.852083 170.95352,268.123717 169.9,268.94 C169.566362,269.197631 169.199783,269.409508 168.81,269.57 C168.291139,269.769811 167.755755,269.923734 167.21,270.03 C167.653482,270.196836 168.065862,270.436828 168.43,270.74 C168.653731,270.951253 168.84572,271.193765 169,271.46 C169.173333,271.746667 169.433333,272.256667 169.78,272.99 C170.593333,274.663333 171.206667,275.883333 171.62,276.65 C171.903949,277.237958 172.238546,277.80008 172.62,278.33 C172.796029,278.570921 173.020932,278.77197 173.28,278.92 C173.557314,279.046811 173.855636,279.121391 174.16,279.14 L174.16,279.45 L169.62,279.45 L169.18,278.45 L168.18,276.27 C167.663535,275.085797 167.082667,273.930737 166.44,272.81 C166.032691,272.051606 165.490487,271.373852 164.84,270.81 C164.603357,270.631767 164.335394,270.499482 164.05,270.42 C163.723054,270.338027 163.387058,270.297707 163.05,270.3 L162.42,270.36 Z M162.42,270.06 L162.94,270.06 C163.754597,270.089607 164.569905,270.025859 165.37,269.87 C165.889142,269.726972 166.363796,269.45525 166.75,269.08 C167.691638,268.207175 168.215598,266.973686 168.19,265.69 C168.189188,265.001527 168.046202,264.320641 167.77,263.69 C167.510704,263.083569 167.113512,262.545991 166.61,262.12 C166.208829,261.80177 165.74023,261.579442 165.24,261.47 C164.495167,261.330135 163.737582,261.269796 162.98,261.29 L162.42,261.29 L162.42,270.06 Z" id="Shape" fill-rule="nonzero"></path>
                <path d="M191.87,260.79 L192.03,266.79 L191.71,266.79 C191.270622,265.113749 190.441434,263.565017 189.29,262.27 C188.355739,261.304397 187.063419,260.768645 185.72,260.79 C184.745119,260.762429 183.779939,260.989936 182.92,261.45 C182.038014,261.994197 181.292303,262.733067 180.74,263.61 C179.35999,265.680232 178.644789,268.122382 178.69,270.61 C178.682244,271.807424 178.847277,272.999704 179.18,274.15 C179.483366,275.207059 179.970837,276.202311 180.62,277.09 C181.60995,278.605471 183.289981,279.527988 185.1,279.55 C185.791623,279.558989 186.476009,279.408424 187.1,279.11 C188.547408,278.436079 189.455421,276.965963 189.41,275.37 C189.493445,274.625783 189.223234,273.88548 188.68,273.37 C187.966231,272.906436 187.1178,272.695209 186.27,272.77 L186.27,272.46 L195,272.46 L195,272.77 C194.422649,272.79669 193.852754,272.911344 193.31,273.11 C192.980699,273.26561 192.723184,273.541008 192.59,273.88 C192.36887,274.656245 192.280957,275.464364 192.33,276.27 C192.33,276.596667 192.346667,277.106667 192.38,277.8 L192.38,278.11 C192.134711,278.007206 191.874952,277.94311 191.61,277.92 C191.329283,277.948846 191.062397,278.056294 190.84,278.23 C189.996163,278.800014 189.063455,279.225815 188.08,279.49 C186.995119,279.787145 185.874827,279.935172 184.75,279.93 C183.259415,279.954259 181.779454,279.675278 180.4,279.11 C179.169381,278.608451 178.088182,277.799274 177.26,276.76 C176.63098,275.940629 176.15965,275.011533 175.87,274.02 C175.543274,272.926794 175.381493,271.790955 175.39,270.65 C175.374931,269.087364 175.670663,267.537322 176.26,266.09 C176.792987,264.751635 177.636106,263.558931 178.72,262.61 C179.60556,261.859257 180.622794,261.279434 181.72,260.9 C182.873272,260.49509 184.087738,260.292115 185.31,260.3 C185.982274,260.297972 186.652809,260.368379 187.31,260.51 C187.997502,260.665506 188.667561,260.889976 189.31,261.18 L190.12,261.55 C190.293813,261.6253 190.480618,261.666058 190.67,261.67 C191.036667,261.67 191.313333,261.373333 191.5,260.78 L191.87,260.79 Z" id="Shape" fill-rule="nonzero"></path>
                <path d="M210.51,260.79 L210.74,265.31 L210.42,265.31 C210.333842,264.647498 210.13426,264.004776 209.83,263.41 C209.536342,262.884282 209.129955,262.430084 208.64,262.08 C208.186646,261.749214 207.668759,261.517528 207.12,261.4 C206.352764,261.249892 205.571594,261.182839 204.79,261.2 L201.66,261.2 L201.66,269.41 L202.48,269.41 C203.110813,269.432155 203.742003,269.378437 204.36,269.25 C204.742579,269.152241 205.089428,268.947601 205.36,268.66 C205.617391,268.392839 205.812097,268.071744 205.93,267.72 C206.086205,267.20169 206.190057,266.669027 206.24,266.13 L206.55,266.13 L206.5,273.46 L206.18,273.46 C206.126906,272.881203 206.00608,272.310635 205.82,271.76 C205.676252,271.352661 205.451771,270.978525 205.16,270.66 C204.865064,270.35724 204.496257,270.136645 204.09,270.02 C203.546822,269.867598 202.983999,269.796824 202.42,269.81 L201.64,269.81 L201.64,272.94 C201.64,274.193333 201.673333,275.103333 201.74,275.67 C201.782995,276.163919 201.908043,276.647212 202.11,277.1 C202.400507,277.733623 202.902588,278.246312 203.53,278.55 C204.322528,278.886485 205.179654,279.043568 206.04,279.01 C206.974374,279.035051 207.905699,278.892813 208.79,278.59 C209.500646,278.354335 210.133419,277.929029 210.62,277.36 C210.955161,276.95796 211.225115,276.505787 211.42,276.02 C211.66894,275.371558 211.859692,274.702252 211.99,274.02 L212.3,274.02 L212.12,279.47 L195.8,279.47 L195.8,279.16 C196.231909,279.150139 196.65994,279.075992 197.07,278.94 C197.400206,278.819894 197.698023,278.624773 197.94,278.37 C198.233052,278.057391 198.433805,277.669731 198.52,277.25 C198.645011,276.56742 198.698633,275.873682 198.68,275.18 L198.68,265.08 C198.698633,264.386318 198.645011,263.69258 198.52,263.01 C198.433311,262.590444 198.232624,262.202911 197.94,261.89 C197.705414,261.635823 197.414202,261.44054 197.09,261.32 C196.676115,261.185566 196.245019,261.111472 195.81,261.1 L195.81,260.79 L210.51,260.79 Z" id="Shape" fill-rule="nonzero"></path>
                <path d="M241.92,231.98 C242.695103,232.465315 243.585849,232.73461 244.5,232.76 C245.92,232.76 246.59,232.05 246.59,231.16 C246.59,230.27 246.03,229.71 244.59,229.16 C242.65,228.47 241.74,227.4 241.74,226.11 C241.74,224.38 243.14,222.95 245.46,222.95 C246.386392,222.940563 247.299413,223.171402 248.11,223.62 L247.62,225.04 C246.957874,224.634408 246.196477,224.419832 245.42,224.42 C244.26,224.42 243.62,225.09 243.62,225.89 C243.62,226.69 244.27,227.18 245.62,227.72 C247.49,228.43 248.45,229.37 248.45,230.97 C248.45,232.86 246.98,234.2 244.45,234.2 C243.404145,234.216172 242.371496,233.964894 241.45,233.47 L241.92,231.98 Z" id="Shape" fill-rule="nonzero"></path>
                <path d="M249.78,232.85 L254.65,226.5 C255.12,225.92 255.56,225.41 256.05,224.83 L256.05,224.83 L250.22,224.83 L250.22,223.25 L258.42,223.25 L258.42,224.47 L253.61,230.73 C253.16,231.33 252.72,231.86 252.23,232.42 L252.23,232.42 L258.53,232.42 L258.53,233.98 L249.78,233.98 L249.78,232.85 Z" id="Shape" fill-rule="nonzero"></path>
                <path d="M261.42,228.96 C261.331893,229.969247 261.691831,230.966212 262.404329,231.686412 C263.116827,232.406613 264.109864,232.777251 265.12,232.7 C266.148012,232.735837 267.171559,232.548187 268.12,232.15 L268.45,233.55 C267.316958,234.022259 266.097143,234.250548 264.87,234.22 C261.55,234.22 259.57,232.04 259.57,228.79 C259.57,225.54 261.49,222.98 264.62,222.98 C268.14,222.98 269.07,226.07 269.07,228.05 C269.065775,228.354501 269.042396,228.658435 269,228.96 L261.42,228.96 Z M267.16,227.56 C267.16,226.31 266.65,224.38 264.44,224.38 C262.44,224.38 261.59,226.2 261.44,227.56 L267.16,227.56 Z" id="Shape" fill-rule="nonzero"></path>
                <path d="M272.31,223.21 L273.73,228.69 C274.04,229.89 274.33,231.01 274.53,232.12 L274.6,232.12 C274.84,231.03 275.2,229.87 275.6,228.71 L277.36,223.21 L279.01,223.21 L280.68,228.6 C281.08,229.89 281.39,231.03 281.68,232.12 L281.75,232.12 C281.958553,230.942391 282.232307,229.777266 282.57,228.63 L284.11,223.22 L286.05,223.22 L282.58,234 L280.8,234 L279.15,228.86 C278.756408,227.697859 278.422637,226.516309 278.15,225.32 L278.15,225.32 C277.886155,226.525097 277.552255,227.713782 277.15,228.88 L275.42,234 L273.64,234 L270.39,223.22 L272.31,223.21 Z" id="Shape" fill-rule="nonzero"></path>
                <path d="M295.37,233.59 C294.398023,234.02106 293.343031,234.232741 292.28,234.21 C290.810729,234.286043 289.379749,233.726365 288.351942,232.673676 C287.324136,231.620988 286.79884,230.177032 286.91,228.71 C286.836279,227.159175 287.425057,225.650082 288.52955,224.558942 C289.634044,223.467801 291.150186,222.897422 292.7,222.99 C293.636421,222.978544 294.564261,223.16957 295.42,223.55 L294.97,225.06 C294.270637,224.695275 293.488163,224.519477 292.7,224.55 C290.23,224.55 288.89,226.38 288.89,228.62 C288.802172,229.659914 289.158801,230.688387 289.871558,231.450694 C290.584314,232.213 291.586537,232.637843 292.63,232.62 C293.459341,232.622905 294.279011,232.441895 295.03,232.09 L295.37,233.59 Z" id="Shape" fill-rule="nonzero"></path>
                <path d="M248.3,253.7 C247.410388,254.096824 246.443867,254.291494 245.47,254.27 C244.131855,254.339111 242.828269,253.831338 241.88944,252.8753 C240.950611,251.919262 240.466597,250.606669 240.56,249.27 C240.492243,247.852638 241.029907,246.47324 242.038984,245.475608 C243.048062,244.477975 244.433503,243.95608 245.85,244.04 C246.703533,244.03166 247.549021,244.20553 248.33,244.55 L247.92,245.93 C247.27944,245.594835 246.562436,245.43282 245.84,245.46 C243.866786,245.545279 242.306304,247.16151 242.290313,249.136501 C242.274321,251.111492 243.808426,252.752779 245.78,252.87 C246.540736,252.873123 247.292498,252.705685 247.98,252.38 L248.3,253.7 Z" id="Shape" fill-rule="nonzero"></path>
                <path d="M255.91,254.07 L255.77,252.83 L255.71,252.83 C255.001798,253.769362 253.886203,254.312285 252.71,254.29 C251.928915,254.34297 251.161143,254.067688 250.591664,253.53048 C250.022185,252.993271 249.702634,252.242844 249.71,251.46 C249.71,249.08 251.83,247.77 255.63,247.8 L255.63,247.6 C255.723403,246.978565 255.519295,246.349364 255.078888,245.901093 C254.63848,245.452821 254.012991,245.23761 253.39,245.32 C252.485799,245.323469 251.60004,245.576049 250.83,246.05 L250.42,244.87 C251.397672,244.283379 252.519981,243.982018 253.66,244 C256.66,244 257.41,246.05 257.41,248 L257.41,251.69 C257.396662,252.479772 257.450186,253.269256 257.57,254.05 L255.91,254.07 Z M255.65,249.07 C253.65,249.07 251.48,249.37 251.48,251.29 C251.440698,251.7509 251.605347,252.205874 251.930506,252.53488 C252.255664,252.863887 252.708669,253.033877 253.17,253 C254.238283,253.027917 255.201419,252.360197 255.55,251.35 C255.613355,251.166507 255.64711,250.974101 255.65,250.78 L255.65,249.07 Z" id="Shape" fill-rule="nonzero"></path>
                <polygon id="Shape" fill-rule="nonzero" points="268.37 244.22 268.37 254.07 266.57 254.07 266.57 245.64 262 245.64 262 254.07 260.22 254.07 260.22 244.22"></polygon>
                <path d="M280.2,249.06 C280.2,252.7 277.68,254.29 275.29,254.29 C272.62,254.29 270.57,252.29 270.57,249.22 C270.57,245.92 272.73,243.99 275.46,243.99 C278.19,243.99 280.2,246.05 280.2,249.06 M272.38,249.16 C272.38,251.32 273.62,252.95 275.38,252.95 C277.14,252.95 278.38,251.34 278.38,249.12 C278.38,247.45 277.54,245.33 275.38,245.33 C273.22,245.33 272.38,247.33 272.38,249.16" id="Shape" fill-rule="nonzero"></path>
                <path d="M283.13,244.22 L286.39,248.52 L286.76,248.52 L286.76,244.22 L288.42,244.22 L288.42,248.52 L288.77,248.52 L292.03,244.22 L294.09,244.22 L290.2,248.7 C291.652479,248.845368 292.855053,249.891607 293.2,251.31 C293.502238,252.254826 293.862934,253.179944 294.28,254.08 L292.49,254.08 C292.126967,253.353322 291.825898,252.597307 291.59,251.82 C291.286521,250.531193 290.101984,249.645951 288.78,249.72 L288.42,249.72 L288.42,254.08 L286.71,254.08 L286.71,249.72 L286.42,249.72 C285.04,249.72 284.2,250.23 283.59,251.84 C283.328188,252.607257 283.014119,253.355676 282.65,254.08 L280.92,254.08 C281.327122,253.182546 281.687603,252.264655 282,251.33 C282.61,249.74 283.49,248.87 285,248.7 L281.09,244.22 L283.13,244.22 Z" id="Shape" fill-rule="nonzero"></path>
                <polygon id="Shape" fill-rule="nonzero" points="297.6 244.22 297.6 248.19 302.28 248.19 302.28 244.22 304.05 244.22 304.05 254.07 302.28 254.07 302.28 249.61 297.6 249.61 297.6 254.07 295.82 254.07 295.82 244.22"></polygon>
                <path d="M308.63,244.22 L308.63,248.36 C308.63,249.93 308.63,250.9 308.53,252.31 L308.59,252.31 C309.18,251.11 309.53,250.42 310.18,249.31 L313.25,244.22 L315.35,244.22 L315.35,254.07 L313.64,254.07 L313.64,249.9 C313.64,248.29 313.64,247.46 313.76,245.9 L313.7,245.9 C313.07,247.16 312.64,247.96 312.07,248.95 C311.13,250.48 310.07,252.37 309,254.1 L306.94,254.1 L306.94,244.25 L308.63,244.22 Z" id="Shape" fill-rule="nonzero"></path>
                <path d="M320.03,244.22 L320.03,248.5 L320.42,248.5 L324.13,244.22 L326.31,244.22 L322.02,248.68 C323.61,248.84 324.56,249.9 325.34,251.68 C325.64361,252.50105 325.997616,253.302575 326.4,254.08 L324.53,254.08 C324.167592,253.440414 323.859832,252.771371 323.61,252.08 C323.200417,250.638872 321.845779,249.674835 320.35,249.76 L320,249.76 L320,254.1 L318.23,254.1 L318.23,244.25 L320.03,244.22 Z" id="Shape" fill-rule="nonzero"></path>
                <path d="M306.09,270.16 C303,270.16 299.91,270.16 296.82,270.16 C295.77027,270.257702 294.793457,269.613421 294.47,268.61 C294.29,268.17 294.15,267.71 294.01,267.26 C293.92,266.97 293.85,266.67 293.76,266.38 C293.740041,266.293993 293.676195,266.224892 293.592032,266.198206 C293.507869,266.17152 293.415871,266.191207 293.35,266.25 C293.266867,266.308845 293.189819,266.375844 293.12,266.45 C292.580233,267.031604 291.799682,267.327547 291.01,267.25 C290.334645,267.220548 289.664274,267.119992 289.01,266.95 C288.19,266.74 288.01,266.31 288.3,265.49 C288.545649,264.892083 288.901876,264.345868 289.35,263.88 C289.974521,263.206577 290.687722,262.621213 291.47,262.14 C291.716736,261.962306 291.977607,261.805114 292.25,261.67 C292.721485,261.517276 292.980772,261.012113 292.83,260.54 C292.769415,259.918668 293.002433,259.304684 293.46,258.88 C293.535728,258.783145 293.661538,258.740195 293.780685,258.770523 C293.899832,258.800851 293.989796,258.898725 294.01,259.02 C294.01,259.18 294.08,259.35 294.11,259.52 C294.44,261.39 294.77,263.26 295.11,265.14 C295.223469,265.73869 295.373754,266.329812 295.56,266.91 C295.8,267.66 295.94,267.76 296.73,267.77 C298.12,267.77 299.51,267.77 300.91,267.77 C301.42,267.77 301.91,267.77 302.44,267.77 C302.97,267.77 302.98,267.59 303,267.19 C303.070418,266.4922 302.912511,265.790391 302.55,265.19 C302.415252,264.952067 302.257855,264.727694 302.08,264.52 C301.687285,264.164409 301.60712,263.577939 301.89,263.13 C302.06,262.8 302.21,262.46 302.4,262.13 C302.466139,262.006478 302.594885,261.929374 302.735,261.929374 C302.875115,261.929374 303.003861,262.006478 303.07,262.13 C303.59135,262.720021 303.937675,263.443842 304.07,264.22 C304.207457,264.95543 304.277746,265.701838 304.28,266.45 C304.28,266.65 304.28,266.86 304.28,267.06 C304.28,267.61 304.42,267.75 304.94,267.76 C306.193333,267.76 307.45,267.76 308.71,267.76 C309.16,267.76 309.31,267.58 309.3,267.12 C309.313391,266.297302 309.049177,265.49409 308.55,264.84 C307.78,263.84 307.83,263.93 308.36,262.75 C308.5,262.45 308.56,262.02 308.95,261.99 C309.34,261.96 309.52,262.41 309.72,262.7 C310.138752,263.363277 310.37345,264.126045 310.4,264.91 C310.4,265.65 310.5,266.4 310.56,267.14 C310.56,267.6 310.74,267.75 311.2,267.76 C312.49,267.76 313.78,267.76 315.07,267.76 C315.209881,267.779866 315.350596,267.729749 315.446427,267.625932 C315.542257,267.522116 315.580975,267.377848 315.55,267.24 C315.532737,266.386664 315.268776,265.556578 314.79,264.85 C314.714608,264.73736 314.63105,264.630406 314.54,264.53 C314.130043,264.182379 314.068209,263.572871 314.4,263.15 C314.59,262.83 314.72,262.48 314.92,262.15 C314.989013,262.049511 315.103095,261.989464 315.225,261.989464 C315.346905,261.989464 315.460987,262.049511 315.53,262.15 C316.022318,262.67821 316.36717,263.326531 316.53,264.03 C316.637634,264.492961 316.70125,264.965062 316.72,265.44 C316.72,266.66 316.72,267.88 316.72,269.11 C316.732806,269.279759 316.732806,269.450241 316.72,269.62 C316.67,269.96 316.53,270.11 316.2,270.14 C315.87,270.17 315.59,270.14 315.29,270.14 L306.12,270.14 M291.89,264.79 C292.235268,264.814695 292.58079,264.745591 292.89,264.59 C293.260624,264.407928 293.449529,263.98814 293.34,263.59 C293.27,263.24 293.08,263.11 292.76,263.25 C292.355219,263.423631 291.96411,263.627542 291.59,263.86 C291.33,264.03 290.9,264.22 291.07,264.61 C291.24,265 291.61,264.78 291.88,264.82" id="Shape" fill-rule="nonzero"></path>
                <path d="M272.86,268.29 C272.885051,269.00154 272.851605,269.713936 272.76,270.42 C272.431207,272.240314 271.471732,273.886646 270.05,275.07 C269.35971,275.623763 268.541305,275.99514 267.67,276.15 C267.340527,276.221743 266.999473,276.221743 266.67,276.15 C265.314544,275.844212 264.001495,275.374067 262.76,274.75 C262.58,274.66 262.39,274.55 262.42,274.3 C262.45,274.05 262.7,273.97 263,274.02 C263.3,274.07 263.73,274.16 264.1,274.24 C265.809255,274.646397 267.610392,274.240403 268.98,273.14 C269.872626,272.410333 270.668994,271.570283 271.35,270.64 C271.54,270.4 271.45,270.25 271.11,270.18 C270.77,270.11 270.38,270.05 270.02,269.95 C269.123741,269.754321 268.461507,268.994581 268.39,268.08 C268.19439,266.824828 268.507529,265.543478 269.26,264.52 C269.606122,263.91364 270.274781,263.565624 270.97,263.63 C271.656104,263.755899 272.2151,264.253212 272.42,264.92 C272.697998,265.687161 272.849963,266.494269 272.87,267.31 C272.87,267.65 272.87,267.99 272.87,268.31 M271.03,267.79 C271.45,267.79 271.67,267.72 271.66,267.55 C271.618806,267.038403 271.382507,266.562224 271,266.22 C270.697442,265.990786 270.27298,266.016254 270,266.28 C269.735845,266.561 269.735845,266.999 270,267.28 C270.111192,267.406543 270.247385,267.508688 270.4,267.58 C270.602791,267.658131 270.809779,267.724901 271.02,267.78" id="Shape" fill-rule="nonzero"></path>
                <path d="M261.86,268.36 C261.86,268.66 261.86,268.97 261.86,269.28 C261.938981,270.724181 261.422076,272.137536 260.43,273.19 C259.347132,274.46259 257.946197,275.425301 256.37,275.98 C255.856252,276.162413 255.300964,276.193648 254.77,276.07 C253.400694,275.751969 252.062158,275.313599 250.77,274.76 C250.614284,274.693711 250.466658,274.609832 250.33,274.51 C250.215283,274.424517 250.173963,274.271633 250.23,274.14 C250.268476,274.006492 250.38228,273.908385 250.52,273.89 C250.825401,273.8784 251.130365,273.92245 251.42,274.02 C252.074938,274.188423 252.744807,274.292253 253.42,274.33 C254.4653,274.363876 255.50077,274.118815 256.42,273.62 C257.77954,272.902111 258.951104,271.874423 259.84,270.62 C260.632945,269.563181 260.77539,268.154137 260.21,266.96 C259.962454,266.365433 259.625201,265.812339 259.21,265.32 C258.865032,264.975905 258.769424,264.454042 258.97,264.01 C259.11,263.66 259.21,263.3 259.36,263.01 C259.405826,262.894846 259.507664,262.811362 259.629569,262.789012 C259.751474,262.766663 259.876304,262.808592 259.96,262.9 C260.116233,263.026154 260.260205,263.166778 260.39,263.32 C261.26732,264.327975 261.759708,265.613852 261.78,266.95 C261.78,267.42 261.78,267.9 261.78,268.37 L261.86,268.36 Z" id="Shape" fill-rule="nonzero"></path>
                <path d="M278.2,270.15 L275.76,270.15 C275.247136,270.148846 274.74735,269.988076 274.33,269.69 C274.092548,269.547551 273.920265,269.317839 273.85,269.05 C273.731191,268.481724 273.779824,267.891183 273.99,267.35 C274.07,267.15 274.36,267.05 274.49,267.21 C274.975436,267.700269 275.670724,267.920817 276.35,267.8 L279.35,267.8 C279.586407,267.815692 279.823593,267.815692 280.06,267.8 C280.233414,267.76917 280.36917,267.633414 280.4,267.46 C280.409176,267.393649 280.409176,267.326351 280.4,267.26 C280.43696,265.995148 280.061391,264.75261 279.33,263.72 C278.9492,263.236589 278.454422,262.855198 277.89,262.61 C277.482097,262.460579 277.244256,262.035863 277.33,261.61 C277.33,261.31 277.33,261 277.39,260.7 C277.45,260.4 277.71,260.13 278.12,260.34 C278.670441,260.612953 279.162833,260.989888 279.57,261.45 C280.196743,262.166805 280.663755,263.008789 280.94,263.92 C281.430728,265.726418 281.606633,267.603866 281.46,269.47 C281.46,270.02 281.27,270.16 280.68,270.17 C279.87,270.17 279.05,270.17 278.24,270.17 L278.2,270.15 Z" id="Shape" fill-rule="nonzero"></path>
                <path d="M312.42,275.74 C312.2,275.64 311.89,275.51 311.58,275.37 C311.363176,275.269793 311.152773,275.156242 310.95,275.03 C310.837614,274.980986 310.751497,274.886327 310.713298,274.76982 C310.675099,274.653314 310.688452,274.526041 310.75,274.42 C310.929653,274.05553 311.129979,273.70162 311.35,273.36 C311.409634,273.234131 311.519066,273.13884 311.65194,273.09708 C311.784813,273.05532 311.929083,273.070876 312.05,273.14 C312.33,273.26 312.6,273.41 312.87,273.53 C313.14,273.65 313.36,273.65 313.55,273.33 C313.74,273.01 313.91,272.67 314.11,272.33 C314.31,271.99 314.54,271.9 314.97,272.1 C315.4,272.3 315.76,272.48 316.14,272.7 C316.370667,272.800669 316.477608,273.068021 316.38,273.3 C316.196917,273.700228 315.993313,274.090746 315.77,274.47 C315.664302,274.661423 315.429412,274.739719 315.23,274.65 C314.85,274.51 314.48,274.33 314.11,274.17 C314.019437,274.118619 313.911416,274.107776 313.812447,274.140131 C313.713478,274.172486 313.632723,274.245045 313.59,274.34 C313.39,274.7 313.21,275.06 313,275.41 C312.879803,275.622906 312.642443,275.741586 312.4,275.71" id="Shape" fill-rule="nonzero"></path>
                <path d="M307.77,273.7 C307.67,273.77 307.56,273.81 307.52,273.88 C307.31,274.23 307.13,274.59 306.92,274.94 C306.71,275.29 306.47,275.43 305.99,275.22 C305.51,275.01 305.19,274.84 304.81,274.62 C304.696466,274.57521 304.60803,274.483249 304.567711,274.368051 C304.527392,274.252853 304.539177,274.125815 304.6,274.02 C304.76696,273.648303 304.957342,273.287578 305.17,272.94 C305.233853,272.815564 305.345141,272.722096 305.478738,272.680699 C305.612334,272.639303 305.756974,272.65347 305.88,272.72 C306.23,272.86 306.56,273.03 306.88,273.17 C307.040331,273.250795 307.235837,273.188589 307.32,273.03 C307.53,272.68 307.71,272.32 307.93,271.98 C308.15,271.64 308.36,271.54 308.79,271.72 C309.193411,271.899529 309.58727,272.099797 309.97,272.32 C310.097607,272.377751 310.195139,272.486378 310.238862,272.619445 C310.282584,272.752513 310.268486,272.897819 310.2,273.02 C310.165319,273.113915 310.12179,273.204322 310.07,273.29 C309.46,274.29 309.53,274.64 308.23,273.9 C308.077557,273.823815 307.920597,273.757023 307.76,273.7" id="Shape" fill-rule="nonzero"></path>
                <path d="M302.03,260.07 C301.417554,259.875135 300.842697,259.577562 300.33,259.19 C300.229066,259.091098 300.197509,258.941202 300.25,258.81 C300.387146,258.352387 300.603786,257.922492 300.89,257.54 C300.998089,257.35749 301.223119,257.281065 301.42,257.36 C301.913333,257.586667 302.396667,257.826667 302.87,258.08 C303.063704,258.178355 303.150437,258.408196 303.07,258.61 C302.895665,259.087094 302.63461,259.527838 302.3,259.91 C302.24,259.98 302.12,259.99 302.01,260.03" id="Shape" fill-rule="nonzero"></path>
                <path d="M314.15,275.21 L314.91,275.53 C316.15,276.1 316.18,276.2 315.49,277.4 C315.44,277.49 315.39,277.58 315.33,277.66 C315.278599,277.770212 315.183876,277.854236 315.068319,277.892123 C314.952762,277.93001 314.826678,277.918383 314.72,277.86 C314.285971,277.672288 313.862059,277.462001 313.45,277.23 C313.1,277.03 313.02,276.8 313.19,276.47 C313.374854,276.123627 313.581954,275.789594 313.81,275.47 C313.88,275.37 314.03,275.33 314.15,275.25" id="Shape" fill-rule="nonzero"></path>
                <path d="M259.8,258.47 C259.783451,258.582209 259.756673,258.692669 259.72,258.8 C259.6,259.04 259.47,259.28 259.33,259.51 C258.96,260.12 258.87,260.15 258.19,259.84 C257.847922,259.684028 257.514142,259.510463 257.19,259.32 C256.96808,259.200519 256.876368,258.929749 256.98,258.7 L256.98,258.6 C257.43,257.28 257.7,257.16 258.98,257.79 C259.191622,257.893408 259.392586,258.017336 259.58,258.16 C259.665315,258.250035 259.733136,258.355157 259.78,258.47" id="Shape" fill-rule="nonzero"></path>
                <path d="M227.75,251.46 C227.85,251.46 227.95,251.46 228.05,251.46 L228.05,233.97 L227.42,233.97 L227.42,251.49 C227.52,251.49 227.62,251.49 227.72,251.49" id="Shape" fill-rule="nonzero"></path>
                <path d="M227.75,263.12 L227.45,263.12 L227.45,280.55 L228.06,280.55 L228.06,263.09 C227.96,263.09 227.86,263.09 227.76,263.09" id="Shape" fill-rule="nonzero"></path>
                <path d="M227.75,264.71 C223.652047,264.71 220.33,261.387953 220.33,257.29 C220.33,253.192047 223.652047,249.87 227.75,249.87 C231.847953,249.87 235.17,253.192047 235.17,257.29 C235.17,259.257906 234.388252,261.145212 232.996732,262.536732 C231.605212,263.928252 229.717906,264.71 227.75,264.71 M227.75,253.05 C225.408313,253.05 223.51,254.948313 223.51,257.29 C223.51,259.631687 225.408313,261.53 227.75,261.53 C230.091687,261.53 231.99,259.631687 231.99,257.29 C231.99,254.948313 230.091687,253.05 227.75,253.05" id="Shape" fill-rule="nonzero"></path>
                <text id="" font-family="LiHeiPro, LiHei Pro" font-size="15" font-weight="400">
                    <tspan x="266.4" y="294.2"></tspan>
                </text>
                <path d="M191.36,362.46 C109.73414,362.456155 39.4775055,304.793905 23.5549307,224.736096 C7.63235592,144.678287 50.4783202,64.5212347 125.890747,33.2842856 C201.303174,2.04733654 288.2795,28.4300651 333.630111,96.2983434 C378.980722,164.166622 370.075351,254.618952 312.36,312.34 C280.339116,344.536288 236.768398,362.583927 191.36,362.46 M191.36,20.82 C97.36,20.82 20.82,97.32 20.82,191.36 C20.82,285.4 97.32,361.9 191.36,361.9 C285.4,361.9 361.91,285.36 361.91,191.36 C361.91,97.36 285.42,20.82 191.36,20.82" id="Shape" fill-rule="nonzero"></path>
                <path d="M49.01,201.25 L67.87,201.25 C69.45,201.25 71.03,201.226667 72.61,201.18 C72.8619114,201.142294 73.101577,201.046427 73.31,200.9 C73.64,200.71 73.94,200.49 74.26,200.28 L134.26,161.38 C134.603367,161.150782 134.918832,160.882302 135.2,160.58 L177.78,115.71 L243.27,46.71 C243.59,46.37 243.82,45.86 244.42,46.02 C244.611012,46.0646805 244.776468,46.1833769 244.88,46.35 C245.98,49.21 247.05,52.08 248.15,54.93 C251.416667,63.4033333 254.683333,71.8733333 257.95,80.34 C258.03,80.54 258.11,80.73 258.22,80.99 L258.78,80.65 L277.12,68.76 C277.24,68.68 277.36,68.6 277.48,68.53 C277.94,68.27 278.22,68.42 278.21,68.94 C278.21,69.66 278.15,70.37 278.1,71.09 C277.86,74.81 277.61,78.54 277.38,82.26 C277.25,84.32 277.15,86.38 277.02,88.44 C276.86,91.02 276.68,93.59 276.52,96.17 C276.39,98.17 276.28,100.17 276.16,102.17 C275.99,104.82 275.82,107.47 275.66,110.12 C275.53,112.12 275.42,114.12 275.3,116.19 C275.21,117.64 275.06,119.09 275.04,120.54 C274.878452,122.609623 275.133478,124.69063 275.79,126.66 C281.67,141.746667 287.503333,156.85 293.29,171.97 C293.55,172.65 293.51,172.74 292.85,173.09 L279.71,180 C279.04,180.35 278.38,180.71 277.71,181 C277.453418,181.091744 277.295299,181.349728 277.33,181.62 C277.483333,185.3 277.626667,188.966667 277.76,192.62 C277.85,195.01 277.92,197.39 278.01,199.78 C278.01,200.13 278.01,200.48 278.09,200.89 L278.67,200.89 L317.95,200.89 L318.43,200.89 L318.43,201.75 C318.23,201.75 318.04,201.75 317.84,201.75 L268.79,201.75 C258.09,201.75 247.386667,201.773333 236.68,201.82 L219.55,201.82 L141.33,201.91 L123.66,201.91 L73.51,201.91 C73.2112721,201.927441 72.913985,201.964184 72.62,202.02 L70.68,202.02 C70.4802403,201.965717 70.2761379,201.928912 70.07,201.91 L53.16,201.91 L49.02,201.91 L49.01,201.25 Z M241.69,92.67 L241.04,93.08 L204.1,117.08 L135.9,161.31 C135.475782,161.597117 135.086487,161.932716 134.74,162.31 C133,164.12 131.27,165.95 129.55,167.78 C129.43,167.91 129.31,168.06 129.15,168.26 L129.52,168.26 L145.62,168.68 L158.33,168.99 L176.69,169.44 L189.34,169.75 L207.65,170.2 L220.3,170.51 L238.07,170.95 C238.5,170.95 238.68,170.85 238.7,170.4 C238.84,166.366667 238.99,162.33 239.15,158.29 C239.223333,156.29 239.3,154.316667 239.38,152.37 C239.553333,148.17 239.726667,143.973333 239.9,139.78 C239.98,137.72 240.05,135.65 240.13,133.59 C240.3,129.59 240.48,125.52 240.64,121.49 C240.73,119.27 240.79,117.04 240.88,114.82 C241.04,110.82 241.22,106.9 241.39,102.93 C241.5,100.37 241.6,97.8 241.7,95.24 C241.72,94.36 241.69,93.56 241.69,92.67 Z M243.55,47.73 L243.41,47.67 L137.99,158.78 L138.08,158.88 L138.67,158.51 L230.05,99.26 C233.816667,96.82 237.58,94.3766667 241.34,91.93 C241.572295,91.7909295 241.738273,91.5636121 241.8,91.3 C241.94,88.63 242.04,85.96 242.14,83.3 C242.22,81.24 242.29,79.17 242.37,77.11 C242.536667,72.77 242.713333,68.4366667 242.9,64.11 C242.973333,62.1566667 243.05,60.2 243.13,58.24 C243.263333,54.9066667 243.4,51.5733333 243.54,48.24 C243.56,48.07 243.55,47.9 243.55,47.73 Z M257.81,82.26 C257.65,82.34 257.54,82.39 257.44,82.46 C254.506667,84.36 251.573333,86.2666667 248.64,88.18 C248.461127,88.3243338 248.355017,88.5402118 248.35,88.77 C248.47,90.65 248.63,92.52 248.78,94.4 C248.93,96.28 249.09,98.4 249.25,100.4 C249.41,102.4 249.59,104.51 249.75,106.56 C249.91,108.61 250.06,110.42 250.22,112.35 C250.38,114.28 250.56,116.35 250.72,118.41 C250.88,120.47 251.03,122.34 251.19,124.31 C251.35,126.28 251.52,128.31 251.69,130.31 C251.86,132.31 252,134.24 252.15,136.21 C252.3,138.18 252.49,140.28 252.65,142.32 C252.81,144.36 252.96,146.22 253.12,148.16 C253.28,150.1 253.46,152.16 253.62,154.16 C253.78,156.16 253.93,158.09 254.09,160.06 C254.25,162.03 254.43,164.17 254.59,166.22 C254.71,167.72 254.84,169.22 254.95,170.72 C254.95,171.15 255.12,171.34 255.6,171.35 C260.573333,171.45 265.546667,171.566667 270.52,171.7 C270.97,171.7 271.12,171.56 271.13,171.13 C271.13,170.18 271.21,169.23 271.27,168.28 C271.436667,165.486667 271.61,162.693333 271.79,159.9 C271.903333,158.02 272.016667,156.14 272.13,154.26 C272.3,151.54 272.48,148.82 272.64,146.1 C272.76,144.17 272.87,142.23 272.98,140.3 C273.153333,137.54 273.326667,134.783333 273.5,132.03 C273.63,130.03 273.79,128.03 273.88,125.96 C273.983333,125.201499 273.935755,124.430055 273.74,123.69 C268.886667,111.023333 264.003333,98.34 259.09,85.64 L257.81,82.26 Z M238.62,171.67 C238.2,171.67 237.84,171.61 237.49,171.6 L228.98,171.39 L210.78,170.95 L198.02,170.64 L179.87,170.2 L167,169.89 L151,169.53 L146,169.41 L128.77,169 C128.61018,168.989262 128.44982,168.989262 128.29,169 L128.29,169.16 L128.82,169.33 L151.87,175.98 L178.42,183.7 C178.637494,183.779284 178.868889,183.813313 179.1,183.8 C180.69,183.55 182.28,183.28 183.87,183.02 L194.11,181.36 L203.6,179.81 L213.19,178.24 L222.73,176.68 L232.32,175.11 C234.26,174.79 236.21,174.47 238.15,174.11 C238.28,174.11 238.48,173.93 238.49,173.82 C238.55,173.13 238.58,172.44 238.62,171.67 Z M254.22,171.17 C251.986667,143.75 249.756667,116.326667 247.53,88.9 C247.3,89.03 247.14,89.11 247,89.21 C245.7,90.05 244.42,90.91 243.11,91.72 C242.74727,91.9186241 242.529812,92.3069421 242.55,92.72 C242.55,94.25 242.47,95.77 242.41,97.3 C242.28,100.73 242.13,104.15 242,107.57 C241.92,109.523333 241.843333,111.476667 241.77,113.43 C241.596667,117.75 241.42,122.083333 241.24,126.43 C241.16,128.43 241.09,130.34 241.01,132.29 C240.836667,136.47 240.663333,140.646667 240.49,144.82 C240.41,146.9 240.34,148.98 240.25,151.06 C240.076667,155.413333 239.9,159.77 239.72,164.13 C239.64,166.13 239.56,168.18 239.46,170.21 C239.46,170.9 239.4,170.9 240.09,170.91 L251.09,171.19 C252.08,171.2 253.1,171.18 254.22,171.18 L254.22,171.17 Z M181.01,184.28 L181.01,184.43 L237.42,200.7 C237.77,192.04 238.11,183.52 238.42,174.89 L181.01,184.28 Z M235.27,201.05 C235.27,201.05 235.27,200.96 235.27,200.92 L234.82,200.77 L225.33,198.02 L179.33,184.77 C179.057432,184.690609 178.771085,184.670155 178.49,184.71 C175.8,185.13 173.12,185.58 170.44,186.02 L157.56,188.11 C157.03,188.2 156.5,188.3 155.86,188.42 L156.18,188.66 L175.36,200.93 C175.52678,201.027907 175.716606,201.079677 175.91,201.08 L190.4,201.08 L235.27,201.08 L235.27,201.05 Z M173.85,201.05 L173.85,200.94 C173.75,200.87 173.66,200.79 173.56,200.72 C167.333333,196.72 161.106667,192.736667 154.88,188.77 C154.66964,188.654496 154.427969,188.608964 154.19,188.64 C153.44,188.73 152.7,188.88 151.96,189 L141.1,190.76 L129.6,192.66 L115.42,195 C111.06,195.71 106.7,196.44 102.33,197.14 C101.727144,197.205879 101.170708,197.494798 100.77,197.95 C99.93,198.95 99.02,199.81 98.15,200.74 C98.05,200.85 97.96,200.97 97.85,201.1 L173.85,201.05 Z M153.37,187.96 L153.42,187.81 L126.66,170.68 L102.49,196.15 L102.57,196.27 L153.37,187.96 Z M238.64,200.5 L238.74,200.59 L239.17,200.38 L269.83,184.26 C270.14792,184.130823 270.356981,183.823148 270.36,183.48 C270.43,182.05 270.52,180.61 270.6,179.18 C270.68,177.75 270.79,176.28 270.88,174.83 C270.88,174.03 270.96,173.24 271.01,172.43 L270.67,172.43 C265.536667,172.29 260.403333,172.15 255.27,172.01 C254.910596,171.976047 254.572105,172.184036 254.44,172.52 C249.266667,181.686667 244.09,190.853333 238.91,200.02 L238.64,200.5 Z M75.11,200.64 L75.11,200.75 L83.58,199.38 C89.0533333,198.486667 94.5266667,197.586667 100,196.68 C100.470689,196.640098 100.919274,196.462751 101.29,196.17 C109.396667,187.67 117.486667,179.153333 125.56,170.62 C125.67,170.51 125.76,170.38 125.88,170.23 C125.418425,169.960023 124.971158,169.666295 124.54,169.35 C124.184553,169.010952 123.625447,169.010952 123.27,169.35 C107.363333,179.683333 91.45,190.016667 75.53,200.35 L75.11,200.64 Z M272.28,72.85 L271.74,73.17 C267.48,75.93 263.216667,78.69 258.95,81.45 C258.787302,81.5143446 258.662344,81.648694 258.609937,81.8156198 C258.55753,81.9825457 258.583275,82.1642089 258.68,82.31 C263.72,95.3566667 268.756667,108.403333 273.79,121.45 C273.85,121.62 273.95,121.78 274.02,121.95 L274.15,121.95 C274.15,121.76 274.15,121.57 274.15,121.38 C274.07,118.85 273.99,116.32 273.89,113.79 C273.77,110.6 273.62,107.41 273.5,104.22 C273.41,101.87 273.34,99.52 273.25,97.22 C273.09,93.15 272.91,89.08 272.75,85.01 C272.62,81.66 272.51,78.3 272.39,74.95 C272.42,74.23 272.33,73.59 272.28,72.85 Z M292.42,172.08 L275.3,127.7 C275.24,129.25 275.3,130.75 275.3,132.26 C275.38,134.52 275.46,136.78 275.55,139.04 C275.716667,143.326667 275.886667,147.613333 276.06,151.9 C276.15,154.14 276.22,156.39 276.31,158.63 C276.47,162.7 276.65,166.77 276.81,170.84 C276.81,171.84 276.81,171.84 277.81,171.84 L289.44,172.09 C290.48,172.1 291.42,172.08 292.42,172.08 Z M176.72,184.14 C176.72,184.14 176.72,184.07 176.72,184.04 L176.17,183.87 L138.58,173.03 L127.96,169.97 C127.73,169.9 127.44,169.72 127.33,170.17 L127.82,170.5 C136.66,176.16 145.5,181.826667 154.34,187.5 C154.640872,187.678829 154.992608,187.752694 155.34,187.71 C158.26,187.26 161.17,186.77 164.08,186.3 L176.31,184.3 C176.42,184.23 176.58,184.18 176.72,184.14 Z M239.98,200.89 L239.98,201.04 L240.62,201.04 L267.82,201.04 C268.26,201.04 268.82,201.13 269.12,200.92 C269.42,200.71 269.25,200.16 269.27,199.76 C269.45,196.95 269.62,194.14 269.8,191.33 C269.89,189.94 269.99,188.54 270.08,187.15 C270.08,186.48 270.14,185.82 270.18,185.04 L239.98,200.89 Z M248.2,87.45 L248.75,87.12 C251.5,85.33 254.25,83.54 257.02,81.77 C257.43,81.51 257.46,81.29 257.29,80.86 C253.343333,70.66 249.403333,60.4533333 245.47,50.24 C245.4,50.07 245.31,49.9 245.23,49.73 L245.13,49.73 C246.16,62.3 247.18,74.82 248.2,87.45 L248.2,87.45 Z M238.29,199.17 L238.45,199.17 L253.6,172.37 L239.28,174.72 C238.95,182.94 238.62,191.05 238.3,199.17 L238.29,199.17 Z M270.06,201.01 L270.78,201.01 C272.78,201.01 274.69,201.01 276.65,201.01 C277.17,201.01 277.27,200.85 277.25,200.36 C277.1,197.23 276.97,194.09 276.85,190.95 C276.76,188.55 276.68,186.15 276.6,183.74 C276.6,183.1 276.52,182.46 276.48,181.74 C276.384759,181.754904 276.291049,181.778331 276.2,181.81 C274.58,182.66 272.96,183.5 271.35,184.37 C271.188101,184.492199 271.086198,184.677808 271.07,184.88 C270.91,187.04 270.78,189.21 270.64,191.37 C270.55,192.82 270.45,194.27 270.36,195.72 C270.26,197.47 270.17,199.18 270.07,201 L270.06,201.01 Z M244.42,50.26 L244.31,50.26 C243.77,63.8133333 243.226667,77.39 242.68,90.99 C242.782774,90.9613931 242.883094,90.924609 242.98,90.88 C244.4,89.96 245.82,89.05 247.22,88.11 C247.380946,87.9610509 247.468641,87.7491229 247.46,87.53 C247.41,86.53 247.31,85.46 247.23,84.42 C247.063333,82.42 246.896667,80.4 246.73,78.36 C246.57,76.36 246.42,74.43 246.26,72.46 C246.1,70.49 245.93,68.46 245.76,66.46 C245.59,64.46 245.45,62.53 245.29,60.56 C245.13,58.59 244.95,56.45 244.78,54.4 C244.61,53.04 244.49,51.65 244.42,50.26 Z M276.12,171.68 C275.593333,157.933333 275.063333,144.193333 274.53,130.46 L274.42,130.46 C273.58,144.17 272.73,157.89 271.88,171.68 L276.12,171.68 Z M277.36,69.68 C277.28029,69.6703652 277.19971,69.6703652 277.12,69.68 C275.85,70.5 274.58,71.31 273.33,72.14 C273.202013,72.2544713 273.129204,72.4182921 273.13,72.59 C273.13,73.33 273.13,74.06 273.13,74.8 C273.296667,79.12 273.466667,83.4533333 273.64,87.8 C273.73,90.01 273.8,92.21 273.89,94.42 C274.02,97.72 274.16,101.02 274.29,104.32 C274.38,106.58 274.45,108.84 274.54,111.1 C274.54,111.39 274.62,111.67 274.65,111.95 L274.73,111.95 L277.36,69.68 Z M277.27,180.36 L291.12,173.07 L291.12,172.92 L290.45,172.92 L282.16,172.72 L277.48,172.6 C277.2,172.6 277,172.6 277.01,172.99 C277.08,174.71 277.13,176.43 277.19,178.16 C277.18,178.84 277.23,179.55 277.27,180.36 Z M271.81,172.49 C271.59,176.15 271.36,179.8 271.13,183.55 C271.37,183.45 271.52,183.39 271.65,183.32 C273.11,182.55 274.56,181.77 276.03,181.03 C276.333469,180.91027 276.506588,180.589366 276.44,180.27 C276.34,178.063333 276.26,175.856667 276.2,173.65 C276.2,172.55 276.2,172.55 275.06,172.54 C274.67,172.54 274.27,172.54 273.88,172.54 L271.81,172.49 Z M99.97,197.69 L99.89,197.56 L78.42,201.07 L78.42,201.21 L79,201.21 L94.41,201.21 C95.1531781,201.313659 95.9090829,201.279761 96.64,201.11 C97.26,200.85 97.69,200.11 98.2,199.58 L99.97,197.69 Z M250.76,172.07 C250.76,172.07 250.76,171.99 250.76,171.95 L239.42,171.67 C239.42,172.46 239.34,173.16 239.3,173.94 L250.76,172.07 Z M131.89,164.07 L131.78,163.95 L125.56,167.95 C126.215894,168.098731 126.887643,168.165906 127.56,168.15 C127.835303,168.13627 128.097112,168.026593 128.3,167.84 C129.15,166.99 129.96,166.11 130.79,165.23 L131.89,164.07 Z" id="Shape"></path>
                <path d="M191.36,382.72 C85.84,382.72 0,296.88 0,191.36 C0,85.84 85.84,0 191.36,0 C296.88,0 382.73,85.84 382.73,191.36 C382.73,296.88 296.88,382.72 191.36,382.72 Z M191.36,12.25 C92.6,12.25 12.25,92.6 12.25,191.36 C12.25,290.12 92.6,370.47 191.36,370.47 C290.12,370.47 370.47,290.12 370.47,191.36 C370.47,92.6 290.13,12.25 191.36,12.25 Z" id="Shape" fill-rule="nonzero"></path>
            </g>
        </g>
    </g>
</svg>